<svg xmlns="http://www.w3.org/2000/svg" xmlns:xlink="http://www.w3.org/1999/xlink" width="123" zoomAndPan="magnify" viewBox="0 0 92.25 68.249996" height="91" preserveAspectRatio="xMidYMid meet" version="1.0"><path fill="#ffccb4" d="M 63.445312 43.886719 C 61.035156 42.371094 58.582031 44.929688 57.160156 46.730469 C 59.1875 43.515625 57.847656 37.542969 53.125 38.640625 C 51.8125 38.972656 50.71875 39.949219 50.082031 41.15625 C 51.09375 38.980469 50.910156 35.734375 48.445312 34.679688 C 45.695312 33.648438 43.320312 36.171875 41.890625 38.242188 C 41.707031 37.410156 52.679688 22.0625 47.601562 19.914062 C 45.097656 18.945312 41.804688 22.390625 39.5 25.214844 C 38.757812 22.828125 38.144531 20.507812 35.75 19.675781 C 33.007812 18.691406 30.25 21.292969 30.472656 24.097656 C 30.503906 25.714844 31.160156 26.851562 31.859375 28.3125 C 32.570312 29.765625 33.039062 31.011719 33.664062 32.804688 L 33.765625 32.875 C 30.535156 37.964844 25.976562 44.632812 29.445312 50.589844 C 33.804688 55.964844 39.90625 59.105469 45.511719 63.050781 C 48.0625 64.800781 51.078125 66.402344 54.109375 65.757812 C 58.683594 65.027344 61.546875 58.035156 63.183594 54.921875 C 64.480469 51.675781 66.984375 46.390625 63.445312 43.886719 Z M 63.445312 43.886719 " fill-opacity="1" fill-rule="nonzero"/><path fill="#ff93b9" d="M 42.105469 2.542969 C 40.457031 3.710938 39.738281 4.957031 39.1875 7.257812 C 38.902344 5.765625 38.582031 4.605469 37.671875 3.382812 C 35.800781 0.882812 31.40625 0.699219 29.875 3.703125 C 27.265625 9.402344 35.035156 14.316406 39.570312 15.847656 C 43.71875 13.734375 53.03125 6.820312 47.257812 2.089844 C 45.558594 0.976562 43.757812 1.367188 42.105469 2.542969 Z M 42.105469 2.542969 " fill-opacity="1" fill-rule="nonzero"/><path fill="#7d6c5e" d="M 42.511719 38.609375 C 43.703125 36.964844 45.34375 34.933594 47.59375 35.179688 C 47.5625 35.179688 47.472656 35.15625 47.617188 35.1875 C 47.808594 35.21875 48 35.273438 48.183594 35.347656 C 48.40625 35.425781 48.121094 35.3125 48.230469 35.371094 C 48.375 35.433594 48.5 35.511719 48.628906 35.601562 C 48.652344 35.617188 48.773438 35.703125 48.667969 35.625 C 48.84375 35.757812 49.003906 35.917969 49.148438 36.078125 C 49.242188 36.203125 49.1875 36.117188 49.285156 36.25 C 49.476562 36.511719 49.648438 36.871094 49.707031 37.035156 C 49.800781 37.289062 49.867188 37.554688 49.914062 37.816406 C 49.921875 37.839844 49.9375 37.957031 49.914062 37.824219 C 50.074219 39.078125 49.699219 40.339844 49.164062 41.457031 C 49.601562 41.640625 50.039062 41.824219 50.472656 42.007812 C 50.605469 41.617188 50.902344 41.117188 51.171875 40.761719 C 51.148438 40.792969 51.140625 40.800781 51.148438 40.800781 C 51.378906 40.515625 51.628906 40.269531 51.90625 40.039062 C 51.921875 40.023438 52.011719 39.957031 51.921875 40.023438 C 52.394531 39.617188 53.277344 39.292969 53.628906 39.269531 C 53.933594 39.234375 54.234375 39.234375 54.539062 39.269531 C 54.378906 39.25 54.601562 39.277344 54.632812 39.285156 C 54.855469 39.324219 55.082031 39.386719 55.289062 39.457031 C 55.304688 39.464844 55.503906 39.546875 55.359375 39.480469 C 55.933594 39.75 56.179688 39.925781 56.578125 40.402344 C 56.5625 40.378906 56.507812 40.300781 56.578125 40.410156 C 56.722656 40.617188 56.84375 40.839844 56.945312 41.070312 C 56.882812 40.925781 56.960938 41.117188 56.96875 41.132812 C 57.066406 41.378906 57.136719 41.632812 57.195312 41.886719 C 57.21875 42 57.242188 42.109375 57.257812 42.214844 C 57.257812 42.230469 57.289062 42.449219 57.273438 42.292969 C 57.351562 42.910156 57.34375 43.539062 57.265625 44.148438 C 57.242188 44.421875 57.027344 45.292969 56.84375 45.730469 C 56.761719 45.976562 56.054688 46.855469 56.707031 47.285156 C 57.679688 47.898438 58.160156 46.363281 58.8125 45.886719 C 59.707031 44.914062 61.179688 44.007812 62.152344 44.132812 C 62.664062 44.214844 63 44.445312 63.40625 44.730469 C 63.285156 44.640625 63.445312 44.761719 63.460938 44.777344 C 63.539062 44.839844 63.613281 44.902344 63.683594 44.976562 C 63.722656 45.015625 63.765625 45.054688 63.804688 45.101562 C 63.828125 45.125 63.980469 45.324219 63.867188 45.175781 C 63.988281 45.339844 64.089844 45.515625 64.179688 45.707031 C 65.160156 48.777344 63.492188 52.527344 62.121094 55.480469 C 60.503906 58.382812 59.21875 61.664062 56.570312 63.824219 C 56.308594 64.035156 55.335938 64.625 55.015625 64.734375 C 51.023438 66.386719 47.066406 63.242188 43.757812 61.011719 C 39.140625 57.75 32.308594 54.105469 29.484375 49.160156 C 29.53125 49.269531 29.4375 49.039062 29.445312 49.046875 C 29.238281 48.507812 29.09375 47.9375 28.996094 47.367188 C 28.996094 47.367188 28.964844 47.121094 28.980469 47.253906 C 28.28125 40.515625 34.921875 32.425781 38.910156 27.105469 C 40.035156 25.621094 42.234375 22.976562 43.851562 21.753906 C 44.261719 21.40625 45.296875 20.808594 45.496094 20.746094 C 45.78125 20.636719 46.078125 20.539062 46.382812 20.492188 C 46.460938 20.476562 46.46875 20.4375 46.339844 20.5 C 46.875 20.445312 46.972656 20.476562 47.457031 20.636719 C 47.273438 20.5625 47.425781 20.621094 47.457031 20.644531 C 47.503906 20.675781 47.960938 20.929688 47.6875 20.769531 C 47.785156 20.832031 47.863281 20.929688 47.945312 21.015625 C 47.992188 21.070312 48.039062 21.070312 47.917969 20.984375 C 48.015625 21.113281 48.101562 21.261719 48.167969 21.40625 C 48.152344 21.246094 48.136719 21.308594 48.160156 21.390625 C 48.222656 21.578125 48.277344 21.769531 48.292969 21.96875 C 48.414062 22.816406 47.960938 24.722656 47.355469 26.027344 C 45.839844 29.382812 43.496094 33.773438 41.546875 37.394531 C 41.261719 37.839844 40.917969 38.539062 41.53125 38.878906 C 41.859375 39.046875 42.320312 38.964844 42.511719 38.609375 C 43.734375 36.363281 44.929688 34.097656 46.101562 31.820312 C 47.464844 28.675781 52.167969 22 48.183594 19.398438 C 43.726562 17.648438 39.675781 24.074219 37.21875 26.976562 C 33.046875 32.71875 24.699219 42.484375 28.480469 50.359375 C 29.796875 52.660156 32.019531 54.289062 34.011719 55.972656 C 37.15625 58.457031 40.550781 60.582031 43.878906 62.804688 C 47.019531 64.996094 50.78125 67.472656 54.785156 66.324219 C 58.804688 65.132812 60.734375 61.082031 62.582031 57.6875 C 64.457031 53.859375 66.945312 49.359375 65.445312 45.03125 C 63.046875 40.777344 58.851562 43.132812 56.644531 46.222656 C 57.019531 46.507812 57.394531 46.800781 57.765625 47.085938 C 59.515625 44.132812 59.1875 38.933594 55.296875 37.957031 C 52.625 37.21875 49.9375 39.125 49.085938 41.617188 C 48.828125 42.378906 50.023438 42.886719 50.390625 42.164062 C 52.160156 39.117188 51.605469 34.011719 47.355469 33.726562 C 44.632812 33.625 42.695312 35.863281 41.261719 37.878906 C 40.800781 38.695312 42.011719 39.402344 42.511719 38.609375 Z M 42.511719 38.609375 " fill-opacity="1" fill-rule="nonzero"/><path fill="#7d6c5e" d="M 34.355469 32.613281 C 33.648438 30.40625 32.65625 28.320312 31.660156 26.230469 C 31.683594 26.289062 31.710938 26.34375 31.734375 26.398438 C 31.484375 25.820312 31.300781 25.222656 31.214844 24.597656 C 31.222656 24.660156 31.230469 24.722656 31.238281 24.789062 C 31.175781 24.285156 31.167969 23.785156 31.230469 23.285156 C 31.222656 23.351562 31.214844 23.414062 31.207031 23.476562 C 31.269531 23.015625 31.390625 22.570312 31.566406 22.144531 C 31.542969 22.199219 31.519531 22.253906 31.492188 22.308594 C 31.644531 21.960938 31.828125 21.636719 32.066406 21.332031 C 32.027344 21.382812 31.996094 21.429688 31.957031 21.476562 C 32.148438 21.230469 32.363281 21.015625 32.609375 20.824219 C 32.5625 20.867188 32.515625 20.898438 32.464844 20.9375 C 32.746094 20.722656 33.054688 20.5625 33.375 20.429688 C 33.320312 20.453125 33.265625 20.476562 33.207031 20.5 C 33.582031 20.339844 33.972656 20.230469 34.371094 20.175781 C 34.308594 20.183594 34.246094 20.191406 34.179688 20.199219 C 34.476562 20.160156 34.769531 20.160156 35.058594 20.191406 C 34.996094 20.183594 34.929688 20.175781 34.867188 20.167969 C 35.160156 20.207031 35.433594 20.292969 35.703125 20.40625 C 35.648438 20.382812 35.59375 20.355469 35.535156 20.332031 C 35.933594 20.5 36.324219 20.699219 36.675781 20.960938 C 36.628906 20.921875 36.582031 20.890625 36.53125 20.847656 C 36.78125 21.039062 37.003906 21.269531 37.203125 21.515625 C 37.164062 21.46875 37.132812 21.421875 37.089844 21.375 C 37.507812 21.914062 37.832031 22.523438 38.097656 23.144531 C 38.070312 23.089844 38.046875 23.03125 38.023438 22.976562 C 38.3125 23.652344 38.527344 24.351562 38.710938 25.066406 C 38.804688 25.429688 39.226562 25.683594 39.59375 25.566406 C 41.039062 25.160156 38.8125 21.238281 38.222656 20.515625 C 37.585938 19.707031 36.636719 19.183594 35.664062 18.878906 C 31.757812 17.992188 28.980469 21.890625 29.9375 25.484375 C 30.335938 27.128906 31.292969 28.566406 31.917969 30.121094 C 31.890625 30.066406 31.867188 30.011719 31.84375 29.957031 C 32.265625 30.957031 32.632812 31.972656 32.992188 32.996094 C 33.054688 33.171875 33.160156 33.328125 33.320312 33.425781 C 33.8125 33.75 34.554688 33.203125 34.355469 32.613281 Z M 34.355469 32.613281 " fill-opacity="1" fill-rule="nonzero"/><path fill="#7d6c5e" d="M 39.761719 15.148438 C 39.226562 14.984375 38.703125 14.785156 38.183594 14.570312 C 38.238281 14.59375 38.296875 14.617188 38.351562 14.640625 C 36.925781 14.039062 35.566406 13.261719 34.347656 12.316406 C 34.394531 12.355469 34.445312 12.386719 34.492188 12.425781 C 33.3125 11.511719 32.234375 10.464844 31.316406 9.296875 C 31.359375 9.347656 31.390625 9.394531 31.429688 9.441406 C 31 8.886719 30.625 8.289062 30.351562 7.640625 C 30.378906 7.695312 30.402344 7.75 30.425781 7.804688 C 30.234375 7.34375 30.089844 6.859375 30.019531 6.367188 C 30.027344 6.433594 30.035156 6.496094 30.042969 6.558594 C 29.988281 6.15625 29.988281 5.742188 30.035156 5.335938 C 30.027344 5.398438 30.019531 5.464844 30.011719 5.527344 C 30.066406 5.121094 30.179688 4.734375 30.328125 4.359375 C 30.304688 4.414062 30.28125 4.472656 30.257812 4.527344 C 30.417969 4.160156 30.609375 3.8125 30.855469 3.503906 C 30.816406 3.550781 30.785156 3.597656 30.746094 3.644531 C 30.984375 3.335938 31.269531 3.058594 31.582031 2.8125 C 31.535156 2.851562 31.484375 2.882812 31.4375 2.921875 C 31.75 2.683594 32.089844 2.480469 32.457031 2.328125 C 32.402344 2.351562 32.347656 2.375 32.292969 2.398438 C 32.601562 2.273438 32.929688 2.175781 33.265625 2.128906 C 33.199219 2.136719 33.136719 2.144531 33.074219 2.152344 C 33.429688 2.105469 33.789062 2.128906 34.148438 2.175781 C 34.085938 2.167969 34.019531 2.160156 33.957031 2.152344 C 34.507812 2.226562 35.050781 2.367188 35.558594 2.582031 C 35.503906 2.558594 35.449219 2.535156 35.394531 2.511719 C 35.792969 2.683594 36.175781 2.898438 36.523438 3.160156 C 36.476562 3.121094 36.429688 3.089844 36.382812 3.050781 C 36.660156 3.265625 36.914062 3.519531 37.132812 3.796875 C 37.089844 3.75 37.058594 3.703125 37.019531 3.652344 C 37.386719 4.121094 37.6875 4.644531 37.921875 5.195312 C 37.898438 5.136719 37.871094 5.082031 37.847656 5.027344 C 38.175781 5.796875 38.359375 6.613281 38.519531 7.433594 C 38.550781 7.582031 38.664062 7.71875 38.773438 7.804688 C 40.128906 8.566406 40.027344 6.257812 40.503906 5.535156 C 40.480469 5.589844 40.457031 5.644531 40.433594 5.703125 C 40.648438 5.203125 40.917969 4.71875 41.253906 4.289062 C 41.214844 4.335938 41.183594 4.382812 41.140625 4.433594 C 41.492188 3.988281 41.898438 3.597656 42.355469 3.25 C 42.304688 3.289062 42.257812 3.320312 42.210938 3.359375 C 42.703125 2.980469 43.238281 2.644531 43.8125 2.40625 C 43.757812 2.429688 43.703125 2.453125 43.644531 2.480469 C 44.035156 2.320312 44.441406 2.199219 44.859375 2.136719 C 44.792969 2.144531 44.730469 2.152344 44.667969 2.160156 C 45 2.121094 45.335938 2.113281 45.664062 2.160156 C 45.597656 2.152344 45.535156 2.144531 45.472656 2.136719 C 45.808594 2.183594 46.125 2.273438 46.4375 2.398438 C 46.382812 2.375 46.324219 2.351562 46.269531 2.328125 C 46.628906 2.480469 46.964844 2.683594 47.273438 2.921875 C 47.226562 2.882812 47.179688 2.851562 47.128906 2.8125 C 47.410156 3.027344 47.664062 3.28125 47.886719 3.558594 C 47.847656 3.511719 47.816406 3.464844 47.777344 3.414062 C 47.960938 3.652344 48.109375 3.914062 48.230469 4.195312 C 48.207031 4.136719 48.183594 4.082031 48.160156 4.027344 C 48.277344 4.3125 48.359375 4.613281 48.40625 4.925781 C 48.398438 4.859375 48.390625 4.796875 48.382812 4.734375 C 48.4375 5.121094 48.429688 5.519531 48.375 5.917969 C 48.382812 5.851562 48.390625 5.789062 48.398438 5.726562 C 48.320312 6.289062 48.152344 6.828125 47.9375 7.351562 C 47.960938 7.296875 47.984375 7.242188 48.007812 7.1875 C 47.679688 7.949219 47.25 8.664062 46.738281 9.320312 C 46.78125 9.273438 46.8125 9.226562 46.851562 9.179688 C 45.632812 10.648438 44.195312 11.941406 42.695312 13.132812 C 42.746094 13.09375 42.792969 13.0625 42.839844 13.023438 C 41.722656 13.878906 40.527344 14.625 39.261719 15.230469 C 39.109375 15.300781 38.972656 15.5 38.933594 15.65625 C 38.757812 16.253906 39.445312 16.785156 39.984375 16.46875 C 43 15.007812 45.625 12.785156 47.808594 10.273438 C 50.542969 7.050781 50.949219 2.167969 46.132812 0.828125 C 42.394531 0.175781 39.140625 3.613281 38.550781 7.074219 C 39.011719 7.074219 39.476562 7.074219 39.9375 7.074219 C 39.628906 5.398438 39.078125 3.6875 37.855469 2.4375 C 35.800781 0.398438 32.050781 0.0351562 30.050781 2.351562 C 26.796875 5.910156 29.707031 10.324219 32.777344 12.839844 C 34.707031 14.515625 36.996094 15.777344 39.445312 16.546875 C 40.273438 16.785156 40.664062 15.402344 39.761719 15.148438 Z M 39.761719 15.148438 " fill-opacity="1" fill-rule="nonzero"/></svg>