<svg xmlns="http://www.w3.org/2000/svg" xmlns:xlink="http://www.w3.org/1999/xlink" width="40" zoomAndPan="magnify" viewBox="0 0 30 30.000001" height="40" preserveAspectRatio="xMidYMid meet" version="1.0"><defs><clipPath id="276a6b67b6"><path d="M 3.386719 4 L 26.613281 4 L 26.613281 26 L 3.386719 26 Z M 3.386719 4 " clip-rule="nonzero"/></clipPath><clipPath id="90da739fdc"><path d="M 10 24 L 20 24 L 20 29.03125 L 10 29.03125 Z M 10 24 " clip-rule="nonzero"/></clipPath></defs><g clip-path="url(#276a6b67b6)"><path fill="#000000" d="M 26.144531 25.058594 L 3.855469 25.058594 C 3.777344 25.058594 3.703125 25.042969 3.636719 25.003906 C 3.566406 24.964844 3.511719 24.910156 3.472656 24.84375 C 3.433594 24.777344 3.410156 24.703125 3.410156 24.625 C 3.40625 24.546875 3.425781 24.472656 3.460938 24.402344 L 5.039062 21.433594 C 5.898438 19.8125 6.328125 18.082031 6.328125 16.246094 L 6.328125 13.027344 C 6.328125 12.457031 6.382812 11.890625 6.496094 11.332031 C 6.605469 10.773438 6.769531 10.230469 6.988281 9.707031 C 7.207031 9.179688 7.472656 8.679688 7.789062 8.207031 C 8.105469 7.734375 8.464844 7.292969 8.867188 6.890625 C 9.269531 6.488281 9.710938 6.128906 10.183594 5.8125 C 10.65625 5.496094 11.15625 5.230469 11.683594 5.011719 C 12.207031 4.792969 12.75 4.628906 13.308594 4.515625 C 13.867188 4.40625 14.429688 4.351562 15 4.351562 C 15.570312 4.351562 16.132812 4.40625 16.691406 4.515625 C 17.25 4.628906 17.792969 4.792969 18.316406 5.011719 C 18.84375 5.230469 19.34375 5.496094 19.816406 5.8125 C 20.289062 6.128906 20.730469 6.488281 21.132812 6.890625 C 21.535156 7.292969 21.894531 7.734375 22.210938 8.207031 C 22.527344 8.679688 22.792969 9.179688 23.011719 9.707031 C 23.230469 10.230469 23.394531 10.773438 23.503906 11.332031 C 23.617188 11.890625 23.671875 12.457031 23.671875 13.027344 L 23.671875 16.246094 C 23.671875 18.082031 24.101562 19.8125 24.960938 21.433594 L 26.539062 24.402344 C 26.574219 24.472656 26.59375 24.546875 26.589844 24.625 C 26.589844 24.703125 26.566406 24.777344 26.527344 24.84375 C 26.488281 24.914062 26.433594 24.964844 26.363281 25.003906 C 26.296875 25.042969 26.222656 25.0625 26.144531 25.0625 Z M 4.601562 24.164062 L 25.398438 24.164062 L 24.171875 21.851562 C 23.242188 20.097656 22.777344 18.230469 22.777344 16.246094 L 22.777344 13.027344 C 22.777344 8.734375 19.289062 5.246094 15 5.246094 C 10.710938 5.246094 7.222656 8.734375 7.222656 13.027344 L 7.222656 16.246094 C 7.222656 18.230469 6.757812 20.101562 5.828125 21.855469 Z M 4.601562 24.164062 " fill-opacity="1" fill-rule="nonzero"/></g><path fill="#000000" d="M 17.796875 5.734375 C 17.675781 5.734375 17.570312 5.691406 17.480469 5.601562 C 17.394531 5.515625 17.351562 5.410156 17.351562 5.285156 L 17.351562 3.410156 C 17.351562 3.097656 17.292969 2.796875 17.171875 2.511719 C 17.050781 2.222656 16.882812 1.96875 16.664062 1.746094 C 16.441406 1.527344 16.1875 1.355469 15.898438 1.238281 C 15.613281 1.117188 15.3125 1.058594 15 1.058594 C 14.6875 1.058594 14.386719 1.117188 14.101562 1.238281 C 13.8125 1.355469 13.558594 1.527344 13.335938 1.746094 C 13.117188 1.96875 12.949219 2.222656 12.828125 2.511719 C 12.707031 2.796875 12.648438 3.097656 12.648438 3.410156 L 12.648438 5.285156 C 12.648438 5.410156 12.605469 5.515625 12.519531 5.601562 C 12.429688 5.691406 12.324219 5.734375 12.203125 5.734375 C 12.078125 5.734375 11.972656 5.691406 11.886719 5.601562 C 11.796875 5.515625 11.753906 5.410156 11.753906 5.285156 L 11.753906 3.410156 C 11.753906 2.980469 11.835938 2.566406 12 2.167969 C 12.167969 1.769531 12.402344 1.417969 12.707031 1.113281 C 13.007812 0.808594 13.359375 0.574219 13.757812 0.410156 C 14.15625 0.246094 14.570312 0.164062 15 0.164062 C 15.429688 0.164062 15.84375 0.246094 16.242188 0.410156 C 16.640625 0.574219 16.992188 0.808594 17.292969 1.113281 C 17.597656 1.417969 17.832031 1.769531 18 2.167969 C 18.164062 2.566406 18.246094 2.980469 18.246094 3.410156 L 18.246094 5.285156 C 18.246094 5.410156 18.203125 5.515625 18.113281 5.601562 C 18.027344 5.691406 17.921875 5.734375 17.796875 5.734375 Z M 17.796875 5.734375 " fill-opacity="1" fill-rule="nonzero"/><g clip-path="url(#90da739fdc)"><path fill="#000000" d="M 15 29.027344 C 12.566406 29.027344 10.585938 27.046875 10.585938 24.613281 C 10.585938 24.488281 10.628906 24.382812 10.71875 24.296875 C 10.804688 24.210938 10.910156 24.164062 11.035156 24.164062 C 11.15625 24.164062 11.261719 24.210938 11.351562 24.296875 C 11.4375 24.382812 11.480469 24.488281 11.480469 24.613281 C 11.480469 25.078125 11.570312 25.527344 11.75 25.960938 C 11.929688 26.390625 12.183594 26.773438 12.511719 27.101562 C 12.84375 27.433594 13.222656 27.6875 13.652344 27.863281 C 14.085938 28.042969 14.535156 28.132812 15 28.132812 C 15.464844 28.132812 15.914062 28.042969 16.347656 27.863281 C 16.777344 27.6875 17.15625 27.433594 17.488281 27.101562 C 17.816406 26.773438 18.070312 26.390625 18.25 25.960938 C 18.429688 25.527344 18.519531 25.078125 18.519531 24.613281 C 18.519531 24.488281 18.5625 24.382812 18.648438 24.296875 C 18.738281 24.210938 18.84375 24.164062 18.964844 24.164062 C 19.089844 24.164062 19.195312 24.210938 19.28125 24.296875 C 19.371094 24.382812 19.414062 24.488281 19.414062 24.613281 C 19.414062 27.046875 17.433594 29.027344 15 29.027344 Z M 15 29.027344 " fill-opacity="1" fill-rule="nonzero"/></g></svg>