<svg width="40" height="41" viewBox="0 0 40 41" fill="none" xmlns="http://www.w3.org/2000/svg">
<path d="M39.611 16.4851H38V16.4H20V24.6H31.303C29.654 29.3734 25.223 32.8 20 32.8C13.373 32.8 8 27.2927 8 20.5C8 13.7073 13.373 8.2 20 8.2C23.059 8.2 25.842 9.38285 27.961 11.315L33.618 5.51655C30.046 2.10432 25.268 0 20 0C8.955 0 0 9.17887 0 20.5C0 31.8211 8.955 41 20 41C31.045 41 40 31.8211 40 20.5C40 19.1255 39.862 17.7837 39.611 16.4851Z" fill="#FFC107"/>
<path d="M2.30603 10.9583L8.87703 15.8977C10.655 11.3857 14.961 8.2 20 8.2C23.059 8.2 25.842 9.38285 27.961 11.315L33.618 5.51655C30.046 2.10432 25.268 0 20 0C12.318 0 5.65603 4.44542 2.30603 10.9583Z" fill="#FF3D00"/>
<path d="M20 41C25.166 41 29.86 38.9736 33.409 35.6782L27.219 30.3093C25.211 31.8683 22.715 32.8 20 32.8C14.798 32.8 10.381 29.4001 8.71701 24.6554L2.19501 29.806C5.50501 36.4449 12.227 41 20 41Z" fill="#4CAF50"/>
<path d="M39.611 16.4851H38V16.4H20V24.6H31.303C30.511 26.8929 29.072 28.8701 27.216 30.3103C27.217 30.3092 27.218 30.3092 27.219 30.3082L33.409 35.6772C32.971 36.0851 40 30.75 40 20.5C40 19.1255 39.862 17.7837 39.611 16.4851Z" fill="#1976D2"/>
</svg>
