<svg width="41" height="45" viewBox="0 0 41 45" fill="none" xmlns="http://www.w3.org/2000/svg">
<path d="M20.5 14.374C21.9152 14.374 23.0625 13.1407 23.0625 11.6193C23.0625 10.0978 21.9152 8.8645 20.5 8.8645C19.0848 8.8645 17.9375 10.0978 17.9375 11.6193C17.9375 13.1407 19.0848 14.374 20.5 14.374Z" fill="#5B5B5B"/>
<path d="M20.5 25.3931C21.9152 25.3931 23.0625 24.1597 23.0625 22.6383C23.0625 21.1169 21.9152 19.8835 20.5 19.8835C19.0848 19.8835 17.9375 21.1169 17.9375 22.6383C17.9375 24.1597 19.0848 25.3931 20.5 25.3931Z" fill="#5B5B5B"/>
<path d="M20.5 36.4121C21.9152 36.4121 23.0625 35.1787 23.0625 33.6573C23.0625 32.1359 21.9152 30.9026 20.5 30.9026C19.0848 30.9026 17.9375 32.1359 17.9375 33.6573C17.9375 35.1787 19.0848 36.4121 20.5 36.4121Z" fill="#5B5B5B"/>
</svg>
