
<svg width="38" height="38" viewBox="0 0 38 38" fill="none" xmlns="http://www.w3.org/2000/svg">
                <path d="M35.8889 16.3315V32.7222C35.8889 35.6371 33.5259 38 30.6111 38H24.2778C23.6948 38 23.2222 37.5274 23.2222 36.9444V24.2778C23.2222 23.6948 22.7496 23.2222 22.1667 23.2222H15.8333C15.2504 23.2222 14.7778 23.6948 14.7778 24.2778V36.9444C14.7778 37.5274 14.3052 38 13.7222 38H7.38891C4.47408 38 2.11114 35.6371 2.11114 32.7222V16.3315L1.72661 16.6481C1.2766 17.0187 0.611366 16.9544 0.24077 16.5044C-0.129826 16.0543 -0.0654489 15.3891 0.38456 15.0185L18.329 0.24074C18.7187 -0.0802468 19.2813 -0.0802468 19.671 0.24074L37.6154 15.0185C38.0654 15.3891 38.1298 16.0543 37.7592 16.5044C37.3886 16.9544 36.7234 17.0187 36.2734 16.6481L35.8889 16.3315ZM33.7919 14.6046L19 2.42298L4.2081 14.6046C4.21741 14.6609 4.22225 14.7188 4.22225 14.7778V32.7222C4.22225 34.4711 5.64001 35.8889 7.38891 35.8889H12.6667V24.2778C12.6667 22.5289 14.0844 21.1111 15.8333 21.1111H22.1667C23.9156 21.1111 25.3333 22.5289 25.3333 24.2778V35.8889H30.6111C32.36 35.8889 33.7778 34.4711 33.7778 32.7222V14.7778C33.7778 14.7188 33.7826 14.6609 33.7919 14.6046Z" fill="white"/>
        </svg>