<svg width="28" height="31" viewBox="0 0 28 31" fill="none" xmlns="http://www.w3.org/2000/svg">
<path d="M26.4445 12.987V25.9705C26.4445 28.2794 24.7034 30.1512 22.5556 30.1512H17.8889C17.4594 30.1512 17.1111 29.7768 17.1111 29.315V19.2814C17.1111 18.8197 16.7629 18.4453 16.3334 18.4453H11.6667C11.2371 18.4453 10.8889 18.8197 10.8889 19.2814V29.315C10.8889 29.7768 10.5407 30.1512 10.1111 30.1512H5.44447C3.29669 30.1512 1.55558 28.2794 1.55558 25.9705V12.987L1.27224 13.2378C0.940653 13.5314 0.450481 13.4804 0.17741 13.1239C-0.0956615 12.7674 -0.0482256 12.2405 0.283361 11.9469L13.5056 0.241081C13.7928 -0.013181 14.2073 -0.013181 14.4945 0.241081L27.7167 11.9469C28.0483 12.2405 28.0957 12.7674 27.8226 13.1239C27.5496 13.4804 27.0594 13.5314 26.7278 13.2378L26.4445 12.987ZM24.8993 11.619L14 1.96969L3.10071 11.619C3.10757 11.6637 3.11113 11.7095 3.11113 11.7562V25.9705C3.11113 27.3559 4.1558 28.4789 5.44447 28.4789H9.33335V19.2814C9.33335 17.8961 10.378 16.773 11.6667 16.773H16.3334C17.622 16.773 18.6667 17.8961 18.6667 19.2814V28.4789H22.5556C23.8442 28.4789 24.8889 27.3559 24.8889 25.9705V11.7562C24.8889 11.7095 24.8925 11.6637 24.8993 11.619Z" fill="black"/>
</svg>
