<svg width="46" height="41" viewBox="0 0 46 41" fill="none" xmlns="http://www.w3.org/2000/svg">
<path d="M23 0C27.1585 0 31.0047 0.78094 34.5385 2.34282C38.0723 3.90469 40.8661 6.02852 42.9196 8.71433C44.9732 11.4001 46 14.3296 46 17.503C46 20.6763 44.9732 23.6099 42.9196 26.3041C40.8661 28.9981 38.0766 31.126 34.5514 32.6879C31.0261 34.2497 27.1756 35.0307 23 35.0307C21.6823 35.0307 20.3218 34.9398 18.9186 34.758C12.8262 38.8403 9.58332 40.9064 9.1897 40.9559C9.00151 41.022 8.82184 41.0138 8.65071 40.9312C8.5822 40.8816 8.53084 40.8154 8.49663 40.7327C8.46242 40.6501 8.44527 40.5758 8.44527 40.5096V40.4105C8.54799 39.7659 9.32662 37.0802 10.7813 32.3532C7.47842 30.7666 4.85584 28.6634 2.91351 26.0437C0.971172 23.4241 0 20.5771 0 17.503C0 14.3296 1.02679 11.4001 3.08036 8.71433C5.13393 6.02852 7.92764 3.90469 11.4615 2.34282C14.9954 0.78094 18.8415 0 23 0ZM11.346 22.139V14.5279H13.3739C13.6477 14.5279 13.9344 14.4329 14.2338 14.2428C14.5333 14.0527 14.683 13.7925 14.683 13.4619C14.683 13.1313 14.5461 12.8545 14.2724 12.6314C13.9985 12.4083 13.7333 12.2967 13.4766 12.2967H6.80246C6.51153 12.2967 6.23773 12.3793 5.98103 12.5446C5.72433 12.7099 5.59598 12.9826 5.59598 13.3627C5.59598 13.7429 5.73289 14.0322 6.0067 14.2305C6.28051 14.4288 6.58854 14.5279 6.9308 14.5279H8.95867V22.139C8.95867 22.5522 9.06139 22.891 9.26673 23.1555C9.47208 23.4199 9.76299 23.5521 10.1395 23.5521C10.516 23.5521 10.8112 23.4034 11.0251 23.1059C11.239 22.8083 11.346 22.4861 11.346 22.139ZM22.4609 23.5521C23.0941 23.3208 23.2909 22.734 23.0514 21.7919C22.9829 21.5771 22.4994 20.2921 21.601 17.9368C20.7026 15.5815 20.1849 14.2387 20.048 13.9081C19.586 12.8338 18.9528 12.2967 18.1485 12.2967C17.2756 12.2967 16.5997 12.8338 16.1205 13.9081C15.9836 14.1891 15.4617 15.5568 14.5546 18.0112C13.6477 20.4656 13.177 21.7258 13.1428 21.7919C13.0231 21.9407 12.9931 22.2134 13.053 22.61C13.1129 23.0068 13.2969 23.2794 13.6049 23.4282C13.9472 23.5769 14.2809 23.5935 14.606 23.4778C14.9312 23.362 15.1536 23.1885 15.2734 22.9572L15.8895 21.3209H20.3561C20.5442 21.9159 20.6812 22.3043 20.7667 22.4861C20.8523 22.6514 20.9464 22.8167 21.0491 22.982C21.1517 23.1472 21.34 23.3083 21.6139 23.4654C21.8876 23.6224 22.17 23.6513 22.4609 23.5521ZM29.3661 23.5521C29.7254 23.5521 30.0549 23.4447 30.3543 23.2299C30.6539 23.015 30.8036 22.7257 30.8036 22.3621C30.8036 21.9985 30.6667 21.7134 30.3929 21.5068C30.119 21.3002 29.7768 21.1969 29.3661 21.1969H26.5167V13.7098C26.5167 13.3627 26.4098 13.0405 26.1958 12.7429C25.982 12.4454 25.6868 12.2967 25.3102 12.2967C24.9338 12.2967 24.6428 12.4289 24.4375 12.6933C24.2322 12.9578 24.1294 13.2966 24.1294 13.7098V22.139C24.1294 22.5522 24.2322 22.891 24.4375 23.1555C24.6428 23.4199 24.9338 23.5521 25.3102 23.5521C25.3274 23.5521 25.3573 23.548 25.4002 23.5398C25.4429 23.5314 25.4728 23.5273 25.49 23.5273C25.507 23.5273 25.537 23.5314 25.5798 23.5398C25.6226 23.548 25.6525 23.5521 25.6697 23.5521H29.3661ZM39.4799 23.3786C39.7709 23.1141 39.9163 22.8125 39.9163 22.4737C39.9163 22.1349 39.8051 21.8332 39.5826 21.5688C39.4799 21.42 38.4018 20.0235 36.3482 17.379C37.3408 16.4038 38.3419 15.4287 39.3516 14.4536C39.6083 14.2057 39.7665 13.9123 39.8264 13.5735C39.8864 13.2347 39.7879 12.9165 39.5312 12.619C39.2403 12.3545 38.928 12.2471 38.5943 12.2967C38.2606 12.3463 37.9483 12.5116 37.6574 12.7925C37.606 12.8421 37.3835 13.0611 36.99 13.4495C36.5964 13.838 36.0872 14.3379 35.4626 14.9494C34.838 15.561 34.2861 16.1063 33.807 16.5857V13.7098C33.807 13.3627 33.7 13.0405 33.486 12.7429C33.2721 12.4454 32.977 12.2967 32.6005 12.2967C32.2239 12.2967 31.933 12.4289 31.7277 12.6933C31.5223 12.9578 31.4196 13.2966 31.4196 13.7098V22.139C31.4196 22.5522 31.5223 22.891 31.7277 23.1555C31.933 23.4199 32.2239 23.5521 32.6005 23.5521C32.977 23.5521 33.2721 23.4034 33.486 23.1059C33.7 22.8083 33.807 22.4861 33.807 22.139V19.883C33.8754 19.8168 34.0037 19.6888 34.192 19.4987C34.3802 19.3086 34.5342 19.1557 34.654 19.04C35.7835 20.5275 36.7932 21.8415 37.6831 22.982C37.9226 23.296 38.2007 23.4984 38.5173 23.5894C38.8339 23.6802 39.1548 23.6099 39.4799 23.3786ZM16.5826 19.0896L18.1485 14.6519L19.6886 19.0896H16.5826Z" fill="#FFE500"/>
</svg>
