<svg width="34" height="28" viewBox="0 0 34 28" fill="none" xmlns="http://www.w3.org/2000/svg">
<mask id="mask0_117_22" style="mask-type:luminance" maskUnits="userSpaceOnUse" x="0" y="10" width="34" height="16">
<path d="M0 10.7723H34V25.3597H0V10.7723Z" fill="white"/>
</mask>
<g mask="url(#mask0_117_22)">
<path d="M32.2563 14.6532C33.2408 14.2675 33.8247 13.2865 33.915 12.3117C33.5476 12.5817 32.8349 13.2322 32.5228 13.7099C32.5298 13.6784 32.6359 13.2138 32.6684 13.0069C33.1777 12.494 33.069 11.5709 32.7192 10.9529C32.7192 10.9529 32.6736 11.0291 32.614 11.1563C32.358 11.7164 32.1283 12.388 32.4159 12.9639C32.3843 13.1585 32.2905 13.5758 32.2739 13.6512C32.1862 13.0376 31.8013 12.416 31.392 12.0487C31.306 13.0139 31.5576 13.8914 32.0135 14.5734C31.9232 14.8645 31.761 15.273 31.6444 15.5544C31.6777 14.8268 31.3788 14.1001 30.9387 13.5521C30.6705 14.5752 30.795 15.6272 31.1859 16.5117C31.0062 16.8422 30.8493 17.1219 30.6231 17.4655C30.8423 16.6529 30.5591 15.6438 30.219 15.0784C29.7482 16.1462 29.6728 17.3559 29.949 18.4114C29.7921 18.6183 29.4773 18.9953 29.1021 19.3941C29.5159 18.542 29.423 17.37 29.1416 16.6695C28.4017 17.782 28.1159 19.0768 28.1983 20.2708C27.9388 20.497 27.7951 20.6329 27.1463 21.1255C27.7477 20.3041 27.9178 19.0768 27.7293 18.1502C26.7063 19.2311 26.1391 20.6346 26.0216 21.8838C25.6438 22.1197 25.2046 22.359 24.7811 22.5738C25.7095 21.7138 26.012 20.2778 25.9848 19.4573C25.7332 19.6536 25.5061 19.8281 25.2396 20.1007C24.3568 20.9975 23.7344 22.1512 23.4583 23.1646C22.9744 23.3592 22.5036 23.5179 22.0048 23.6678C23.0419 22.9972 23.737 21.6901 23.8957 20.5461C22.3099 21.3456 21.1027 22.7675 20.5075 24.043C18.1686 24.5225 15.9243 24.541 13.4925 24.043C12.8482 22.6658 11.606 21.3026 10.1043 20.5461C10.2603 21.6743 10.9476 22.991 11.9952 23.6678C11.4964 23.5179 11.0247 23.3592 10.5417 23.1646C10.1823 21.8426 9.35034 20.497 8.0152 19.4573C7.98452 20.3471 8.32203 21.7444 9.21884 22.5738C8.71301 22.3169 8.28871 22.0776 7.97838 21.8838C7.86179 20.6451 7.30161 19.239 6.27067 18.1502C6.11813 18.9085 6.17336 20.1954 6.85364 21.1255C6.42934 20.8038 6.2619 20.6741 5.80166 20.2708C5.88669 19.0435 5.58688 17.7636 4.85838 16.6695C4.66114 17.1613 4.41129 18.393 4.89783 19.3941C4.52525 18.9979 4.20703 18.6174 4.05099 18.4114C4.3245 17.3647 4.25612 16.154 3.78098 15.0784C3.50659 15.5334 3.13401 16.5643 3.37684 17.4655C3.14804 17.1175 2.99375 16.8413 2.81403 16.5117C3.19362 15.6508 3.33301 14.5883 3.06213 13.5521C2.62906 14.0922 2.32223 14.8224 2.35555 15.5544C2.24684 15.2897 2.0794 14.8776 1.98823 14.5734C2.45724 13.8695 2.69393 13.02 2.60802 12.0487C2.21441 12.4011 1.81641 13.02 1.72611 13.6512C1.71997 13.6197 1.6139 13.1541 1.58409 12.9639C1.86901 12.3906 1.64458 11.7217 1.38597 11.1563C1.32636 11.0291 1.28077 10.9529 1.28077 10.9529C0.956412 11.5262 0.803875 12.4747 1.3325 13.0069C1.36405 13.2085 1.45961 13.6302 1.47714 13.7099C1.12824 13.1743 0.371687 12.5238 0.085022 12.3117C0.172687 13.2576 0.738126 14.2596 1.74364 14.6532C1.83745 14.9609 2.00664 15.38 2.1206 15.6535C1.68842 15.1661 0.824915 14.591 0.259475 14.2754C0.605752 15.5982 1.58497 16.4451 2.58698 16.6318C2.76406 16.9553 2.92274 17.2385 3.16119 17.6049C2.43707 17.0412 1.19749 16.517 0.801245 16.3793C1.43068 17.8065 2.68604 18.5578 3.85023 18.5683C4.00978 18.7805 4.33239 19.1645 4.71198 19.5695C3.91072 19.1276 2.53263 18.7814 1.84972 18.6595C2.81579 20.1112 4.37622 20.6977 5.63159 20.4619C6.09621 20.8687 6.26979 21.0028 6.70022 21.3307C5.78763 20.9975 4.31223 20.8801 3.38736 20.8669C4.70409 22.2573 6.49421 22.6053 7.84338 22.1012C8.15809 22.2967 8.59028 22.5404 9.104 22.8017C8.04413 22.6088 6.47492 22.7421 5.41593 22.9051C6.99215 24.1219 9.05929 24.2297 10.4479 23.4013C10.9388 23.5994 11.4131 23.7581 11.9233 23.9124C10.8354 23.8835 8.95321 24.3507 7.96523 24.7014C9.9938 25.7271 12.1425 25.4202 13.4417 24.292C15.9787 24.8118 18.2396 24.7671 20.5583 24.292C21.797 25.3685 23.9089 25.7753 26.0347 24.7014C25.0678 24.3577 23.1672 23.8835 22.0767 23.9124C22.5343 23.7739 23.0296 23.6126 23.5521 23.4013C25.0582 24.2999 27.1279 24.0281 28.584 22.9051C27.5224 22.7421 25.962 22.6079 24.896 22.8017C25.3124 22.5904 25.7691 22.3414 26.1566 22.1012C27.4935 22.6009 29.2871 22.2678 30.6126 20.8669C29.6597 20.8801 28.2062 21.0002 27.2997 21.3307C27.9485 20.8371 28.094 20.7012 28.3684 20.4619C29.5168 20.6776 31.1237 20.2033 32.1503 18.6595C31.4551 18.7831 30.1138 19.1145 29.288 19.5695C29.6711 19.1618 29.9928 18.7779 30.1497 18.5683C31.3323 18.5569 32.5772 17.789 33.1987 16.3793C33.0637 16.4249 31.6935 16.9395 30.8388 17.6049C31.0693 17.2507 31.2333 16.9597 31.4121 16.6318C32.3913 16.4486 33.3872 15.6245 33.7405 14.2754C33.1751 14.5892 32.3081 15.1713 31.8794 15.6535C31.9916 15.3835 32.1608 14.9636 32.2563 14.6532Z" fill="#C99DC2"/>
</g>
<mask id="mask1_117_22" style="mask-type:luminance" maskUnits="userSpaceOnUse" x="5" y="0" width="24" height="28">
<path d="M5.38611 0H28.726V27.099H5.38611V0Z" fill="white"/>
</mask>
<g mask="url(#mask1_117_22)">
<path d="M16.9999 -0.00350952H7.38484C6.30568 -0.00350952 5.43079 0.867881 5.43079 1.94353V19.7334C5.43079 20.4496 5.82528 21.108 6.45822 21.4481L16.9999 27.1025L27.5417 21.4481C28.1746 21.108 28.5691 20.4496 28.5691 19.7334V1.94353C28.5691 0.867881 27.6942 -0.00350952 26.615 -0.00350952H16.9999Z" fill="#FBC5FF"/>
</g>
<path d="M6.7546 20.9002C6.32416 20.6688 6.05591 20.2208 6.05591 19.7334V1.94353C6.05591 1.21328 6.65203 0.618912 7.38491 0.618912H26.6151C27.348 0.618912 27.9441 1.21328 27.9441 1.94353V19.7334C27.9441 20.2208 27.6759 20.6688 27.2454 20.9002L17 26.3959L6.7546 20.9002Z" fill="#C99DC2"/>
<path d="M7.38487 0.725872C6.71072 0.725872 6.16282 1.27203 6.16282 1.94354V19.7334C6.16282 20.1814 6.41003 20.5934 6.80452 20.8055L17 26.275L27.1954 20.8055C27.5899 20.5934 27.8371 20.1814 27.8371 19.7334V1.94354C27.8371 1.27203 27.2892 0.725872 26.6151 0.725872H7.38487ZM17 26.5178L6.70459 20.994C6.23821 20.7433 5.94891 20.2603 5.94891 19.7334V1.94354C5.94891 1.15368 6.59237 0.511093 7.38487 0.511093H26.6151C27.4076 0.511093 28.051 1.15368 28.051 1.94354V19.7334C28.051 20.2603 27.7617 20.7433 27.2953 20.994L17 26.5178Z" fill="white"/>
<path d="M17 25.8112L16.7598 25.6823L16.8623 25.4939L17 25.5675L17.1376 25.4939L17.2402 25.6823L17 25.8112Z" fill="white"/>
<path d="M8.22913 1.34828H7.80133V1.1335H8.22913V1.34828ZM9.08475 1.34828H8.65782V1.1335H9.08475V1.34828ZM9.94036 1.34828H9.51255V1.1335H9.94036V1.34828ZM10.796 1.34828H10.3673V1.1335H10.796V1.34828ZM11.6507 1.34828H11.2229V1.1335H11.6507V1.34828ZM12.5072 1.34828H12.0785V1.1335H12.5072V1.34828ZM13.3619 1.34828H12.9341V1.1335H13.3619V1.34828ZM14.2167 1.34828H13.7906V1.1335H14.2167V1.34828ZM15.0723 1.34828H14.6453V1.1335H15.0723V1.34828ZM15.9279 1.34828H15.5001V1.1335H15.9279V1.34828ZM16.7835 1.34828H16.3548V1.1335H16.7835V1.34828ZM17.64 1.34828H17.2113V1.1335H17.64V1.34828ZM18.4947 1.34828H18.066V1.1335H18.4947V1.34828ZM19.3494 1.34828H18.9216V1.1335H19.3494V1.34828ZM20.2042 1.34828H19.7781V1.1335H20.2042V1.34828ZM21.0607 1.34828H20.6329V1.1335H21.0607V1.34828ZM21.9163 1.34828H21.4893V1.1335H21.9163V1.34828ZM22.771 1.34828H22.3441V1.1335H22.771V1.34828ZM23.6275 1.34828H23.1988V1.1335H23.6275V1.34828ZM24.4822 1.34828H24.0544V1.1335H24.4822V1.34828ZM25.3387 1.34828H24.91V1.1335H25.3387V1.34828ZM26.1935 1.34828H25.7656V1.1335H26.1935V1.34828ZM26.9596 1.45786C26.8597 1.38685 26.7422 1.34828 26.6204 1.34828L26.6213 1.1335C26.7878 1.13525 26.9482 1.1861 27.0841 1.28253L26.9596 1.45786ZM7.03601 1.46049L6.91065 1.28691C7.04653 1.18873 7.20521 1.13613 7.37177 1.1335L7.37615 1.34828C7.25255 1.35003 7.13683 1.38773 7.03601 1.46049ZM27.4278 2.12411H27.2121V1.94352C27.2121 1.87339 27.2007 1.80501 27.1771 1.73926L27.3787 1.66738C27.4102 1.75504 27.4278 1.84885 27.4278 1.94352V2.12411ZM6.78792 2.12937H6.57227V1.94352C6.57227 1.84972 6.58805 1.75943 6.6196 1.67264L6.82211 1.74365C6.79932 1.80764 6.78792 1.87515 6.78792 1.94352V2.12937ZM27.4278 2.97709H27.2121V2.55017H27.4278V2.97709ZM6.78792 2.98235H6.57227V2.55543H6.78792V2.98235ZM27.4278 3.8292H27.2121V3.40227H27.4278V3.8292ZM6.78792 3.83446H6.57227V3.40753H6.78792V3.83446ZM27.4278 4.68043H27.2121V4.25525H27.4278V4.68043ZM6.78792 4.68569H6.57227V4.26051H6.78792V4.68569ZM27.4278 5.53428H27.2121V5.10735H27.4278V5.53428ZM6.78792 5.53954H6.57227V5.11261H6.78792V5.53954ZM27.4278 6.38551H27.2121V5.95946H27.4278V6.38551ZM6.78792 6.39077H6.57227V5.96472H6.78792V6.39077ZM27.4278 7.23761H27.2121V6.81244H27.4278V7.23761ZM6.78792 7.24287H6.57227V6.8177H6.78792V7.24287ZM27.4278 8.09059H27.2121V7.66454H27.4278V8.09059ZM6.78792 8.09585H6.57227V7.6698H6.78792V8.09585ZM27.4278 8.9427H27.2121V8.51752H27.4278V8.9427ZM6.78792 8.94796H6.57227V8.52278H6.78792V8.94796ZM27.4278 9.7948H27.2121V9.36963H27.4278V9.7948ZM6.78792 9.80006H6.57227V9.37489H6.78792V9.80006ZM27.4278 10.6478H27.2121V10.2209H27.4278V10.6478ZM6.78792 10.653H6.57227V10.2261H6.78792V10.653ZM27.4278 11.4999H27.2121V11.0738H27.4278V11.4999ZM6.78792 11.5051H6.57227V11.0782H6.78792V11.5051ZM27.4278 12.3529H27.2121V11.9259H27.4278V12.3529ZM6.78792 12.3564H6.57227V11.9312H6.78792V12.3564ZM27.4278 13.205H27.2121V12.778H27.4278V13.205ZM6.78792 13.2102H6.57227V12.7833H6.78792V13.2102ZM27.4278 14.0562H27.2121V13.6301H27.4278V14.0562ZM6.78792 14.0615H6.57227V13.6363H6.78792V14.0615ZM27.4278 14.9083H27.2121V14.4831H27.4278V14.9083ZM6.78792 14.9136H6.57227V14.4884H6.78792V14.9136ZM27.4278 15.7613H27.2121V15.3352H27.4278V15.7613ZM6.78792 15.7665H6.57227V15.3405H6.78792V15.7665ZM27.4278 16.6134H27.2121V16.1882H27.4278V16.6134ZM6.78792 16.6186H6.57227V16.1935H6.78792V16.6186ZM27.4278 17.4655H27.2121V17.0394H27.4278V17.4655ZM6.78792 17.4716H6.57227V17.0447H6.78792V17.4716ZM27.4278 18.3185H27.2121V17.8915H27.4278V18.3185ZM6.78792 18.3237H6.57227V17.8968H6.78792V18.3237ZM27.4278 19.1697H27.2121V18.7436H27.4278V19.1697ZM6.78792 19.175H6.57227V18.7489H6.78792V19.175ZM27.3594 20.0577L27.1621 19.9718C27.1955 19.8956 27.2121 19.8149 27.2121 19.7334V19.5966H27.4278V19.7334C27.4278 19.8456 27.4041 19.9552 27.3594 20.0577ZM6.64327 20.063C6.59594 19.9587 6.57227 19.8482 6.57227 19.7334V19.6019H6.78792V19.7334C6.78792 19.8175 6.80458 19.8991 6.83964 19.9762L6.64327 20.063ZM26.6598 20.6293L26.5581 20.4408L26.8974 20.2576C26.9088 20.2524 26.9193 20.2453 26.9281 20.2392L27.0403 20.4224C27.0271 20.4303 27.014 20.4382 27.0008 20.4461L26.6598 20.6293ZM7.34547 20.632L7.00007 20.4461C6.98867 20.4391 6.97552 20.433 6.965 20.4251L7.07546 20.2418C7.08511 20.2471 7.093 20.2524 7.10264 20.2576L7.44716 20.4417L7.34547 20.632ZM25.9068 21.0335L25.8051 20.8432L26.1812 20.6425L26.2837 20.8301L25.9068 21.0335ZM8.09851 21.0343L7.72243 20.8327L7.82412 20.6451L8.20021 20.8459L8.09851 21.0343ZM25.1537 21.4358L25.0521 21.2474L25.4281 21.0466L25.5298 21.2342L25.1537 21.4358ZM8.85156 21.4385L8.47547 21.2368L8.57716 21.0492L8.95325 21.25L8.85156 21.4385ZM24.3998 21.84L24.2981 21.6515L24.6751 21.4507L24.7768 21.6383L24.3998 21.84ZM9.60548 21.8426L9.22852 21.641L9.33021 21.4534L9.70717 21.6541L9.60548 21.8426ZM23.6468 22.2441L23.5451 22.0565L23.9221 21.8549L24.0237 22.0434L23.6468 22.2441ZM10.3585 22.2467L9.98156 22.046L10.0832 21.8575L10.4602 22.0591L10.3585 22.2467ZM22.8937 22.6482L22.792 22.4606L23.169 22.259L23.2707 22.4475L22.8937 22.6482ZM11.1116 22.6509L10.7346 22.4501L10.8363 22.2599L11.2133 22.4633L11.1116 22.6509ZM22.1407 23.0524L22.039 22.8648L22.4151 22.6614L22.5168 22.8516L22.1407 23.0524ZM11.8646 23.055L11.4885 22.8525L11.5902 22.664L11.9663 22.8674L11.8646 23.055ZM21.3877 23.4574L21.286 23.2689L21.662 23.0655L21.7637 23.254L21.3877 23.4574ZM12.6168 23.46L12.2398 23.2566L12.3433 23.0682L12.7185 23.2715L12.6168 23.46ZM20.6337 23.8615L20.532 23.6731L20.909 23.4705L21.0107 23.6581L20.6337 23.8615ZM13.3716 23.8642L12.9937 23.6608L13.0963 23.4732L13.4733 23.6757L13.3716 23.8642ZM19.8807 24.2657L19.779 24.0772L20.156 23.8747L20.2577 24.0623L19.8807 24.2657ZM14.1229 24.2683L13.7476 24.0649L13.8485 23.8773L14.2245 24.0781L14.1229 24.2683ZM19.1276 24.6698L19.026 24.4796L19.402 24.2788L19.5046 24.4664L19.1276 24.6698ZM14.8768 24.6707L14.4998 24.469L14.6015 24.2814L14.9793 24.4822L14.8768 24.6707ZM18.3746 25.0739L18.2729 24.8846L18.649 24.683L18.7507 24.8714L18.3746 25.0739ZM15.6307 25.0766L15.2546 24.8741L15.3563 24.6856L15.7324 24.8872L15.6307 25.0766ZM17.6207 25.4781L17.519 25.2887L17.896 25.0871L17.9976 25.2756L17.6207 25.4781ZM16.3829 25.479L16.0077 25.2782L16.1076 25.0897L16.4845 25.2913L16.3829 25.479Z" fill="white"/>
<path d="M15.8481 18.1247V8.96813L13.4645 9.69487V7.9442L17.0596 6.09973H18.5946V17.3296C18.5946 17.6259 18.5271 17.8416 18.4193 17.9626C18.2852 18.0704 18.0695 18.1247 17.7601 18.1247H15.8481Z" fill="white"/>
</svg>
