<svg width="37" height="38" viewBox="0 0 37 38" fill="none" xmlns="http://www.w3.org/2000/svg">
<path d="M1.32143 0C0.977304 0 0.671038 0.134298 0.402623 0.402902C0.134208 0.671506 0 0.989586 0 1.35714V36.6429C0 37.0104 0.134208 37.3285 0.402623 37.5971C0.671038 37.8657 0.977304 38 1.32143 38H35.6786C36.0227 38 36.329 37.8657 36.5974 37.5971C36.8658 37.3285 37 37.0104 37 36.6429V1.35714C37 0.989586 36.8658 0.671506 36.5974 0.402902C36.329 0.134298 36.0227 0 35.6786 0H1.32143ZM8.27958 9.5H15.4029L21.5971 19V9.5H28.7204V28.5H21.5971L15.4029 19V28.5H8.27958V9.5Z" fill="#03C75A"/>
</svg>
