<svg width="25" height="25" viewBox="0 0 25 25" fill="none" xmlns="http://www.w3.org/2000/svg">
<path fill-rule="evenodd" clip-rule="evenodd" d="M10.3833 19.2832C5.47496 19.2832 1.48332 15.2916 1.48332 10.3833C1.48332 5.47496 5.47496 1.48332 10.3833 1.48332C15.2916 1.48332 19.2832 5.47496 19.2832 10.3833C19.2832 15.2916 15.2916 19.2832 10.3833 19.2832ZM18.2212 17.1725C19.8024 15.3509 20.7666 12.9791 20.7666 10.3833C20.7666 4.65913 16.1074 0 10.3833 0C4.65913 0 0 4.65913 0 10.3833C0 16.1074 4.65913 20.7666 10.3833 20.7666C12.9791 20.7666 15.3509 19.8024 17.1725 18.2212L23.9498 25L25 23.9498L18.2212 17.1725Z" fill="black"/>
</svg>
