<svg xmlns="http://www.w3.org/2000/svg" xmlns:xlink="http://www.w3.org/1999/xlink" width="40" zoomAndPan="magnify" viewBox="0 0 30 30.000001" height="40" preserveAspectRatio="xMidYMid meet" version="1.0"><defs><clipPath id="a19a7fcb53"><path d="M 1.933594 0.816406 L 28.066406 0.816406 L 28.066406 28.398438 L 1.933594 28.398438 Z M 1.933594 0.816406 " clip-rule="nonzero"/></clipPath><clipPath id="b9f5f7a1df"><path d="M 2 1 L 28 1 L 28 28.398438 L 2 28.398438 Z M 2 1 " clip-rule="nonzero"/></clipPath><clipPath id="507f3389a2"><path d="M 2 4 L 28.066406 4 L 28.066406 13 L 2 13 Z M 2 4 " clip-rule="nonzero"/></clipPath></defs><g clip-path="url(#a19a7fcb53)"><path fill="#866457" d="M 28.019531 6.902344 C 28.019531 7.367188 28.007812 7.828125 28.015625 8.289062 C 28.019531 8.398438 27.972656 8.519531 28.058594 8.621094 C 28.058594 8.632812 28.058594 8.644531 28.058594 8.65625 C 27.992188 8.824219 27.988281 9.007812 27.996094 9.175781 C 28.011719 9.453125 28.007812 9.730469 28.015625 10.007812 C 28.039062 10.609375 27.992188 11.207031 28.027344 11.804688 C 28.039062 11.804688 28.046875 11.804688 28.058594 11.804688 C 28.058594 12.1875 28.058594 12.570312 28.058594 12.953125 L 28.046875 12.957031 L 28.03125 12.957031 C 28.027344 13.207031 27.96875 13.453125 27.992188 13.703125 C 28.007812 13.875 28.042969 14.046875 28.015625 14.210938 C 27.957031 14.554688 28.046875 14.890625 28.023438 15.226562 C 28.023438 15.246094 28.046875 15.265625 28.058594 15.285156 C 28.058594 15.375 28.058594 15.460938 28.058594 15.546875 C 28.003906 15.570312 28.027344 15.617188 28.019531 15.65625 C 27.972656 15.984375 28.035156 16.308594 28.027344 16.636719 C 28.019531 16.792969 27.972656 16.953125 28.058594 17.101562 C 28.058594 17.113281 28.058594 17.125 28.058594 17.140625 C 28 17.433594 27.988281 17.734375 27.996094 18.027344 C 28.007812 18.339844 28.003906 18.652344 28.011719 18.964844 C 28.039062 19.753906 28.023438 20.546875 28.019531 21.335938 C 28.015625 21.765625 27.992188 22.195312 27.984375 22.625 C 27.984375 22.730469 27.984375 22.808594 27.863281 22.851562 C 27.816406 22.867188 27.746094 22.90625 27.773438 22.988281 C 27.875 23.335938 27.800781 23.695312 27.839844 24.042969 C 27.855469 24.214844 27.746094 24.320312 27.625 24.347656 C 27.28125 24.425781 26.953125 24.542969 26.609375 24.621094 C 26.371094 24.679688 26.125 24.707031 25.894531 24.800781 C 25.632812 24.90625 25.402344 24.820312 25.257812 24.570312 C 25.199219 24.464844 25.136719 24.390625 24.988281 24.445312 C 24.808594 24.511719 24.613281 24.535156 24.425781 24.585938 C 24.101562 24.671875 23.769531 24.75 23.449219 24.859375 C 23.148438 24.957031 22.832031 25.003906 22.527344 25.09375 C 22.242188 25.175781 21.945312 25.238281 21.65625 25.308594 C 21.367188 25.382812 21.078125 25.460938 20.792969 25.550781 C 20.550781 25.625 20.300781 25.664062 20.058594 25.742188 C 19.824219 25.816406 19.589844 25.894531 19.34375 25.921875 C 19.082031 25.953125 18.824219 26.042969 18.578125 26.128906 C 18.308594 26.226562 18.027344 26.25 17.757812 26.34375 C 17.613281 26.394531 17.453125 26.457031 17.292969 26.476562 C 16.953125 26.515625 16.628906 26.617188 16.3125 26.730469 C 16.027344 26.828125 15.726562 26.867188 15.4375 26.9375 C 15.046875 27.039062 14.921875 27.167969 14.863281 27.542969 C 14.847656 27.660156 14.800781 27.691406 14.710938 27.730469 C 14.246094 27.917969 13.746094 27.953125 13.269531 28.097656 C 12.90625 28.210938 12.535156 28.289062 12.167969 28.398438 C 12.132812 28.398438 12.097656 28.398438 12.058594 28.398438 C 11.933594 28.222656 11.71875 28.238281 11.542969 28.1875 C 11.195312 28.082031 10.839844 28.007812 10.492188 27.90625 C 10.347656 27.863281 10.199219 27.839844 10.0625 27.773438 C 10.019531 27.753906 9.949219 27.796875 9.929688 27.742188 C 9.902344 27.652344 9.871094 27.550781 9.882812 27.460938 C 9.917969 27.238281 9.746094 26.929688 9.539062 26.867188 C 8.953125 26.695312 8.363281 26.542969 7.777344 26.375 C 7.171875 26.199219 6.546875 26.085938 5.941406 25.90625 C 5.554688 25.792969 5.160156 25.699219 4.78125 25.554688 C 4.617188 25.492188 4.4375 25.480469 4.269531 25.460938 C 4.117188 25.445312 4.003906 25.617188 3.953125 25.773438 C 3.882812 25.976562 3.722656 26.09375 3.527344 26.019531 C 3.191406 25.890625 2.824219 25.890625 2.503906 25.722656 C 2.375 25.65625 2.21875 25.710938 2.078125 25.640625 C 2.011719 25.605469 1.976562 25.578125 1.976562 25.5 C 1.980469 24.980469 1.976562 24.457031 1.976562 23.9375 C 1.976562 23.390625 1.972656 22.84375 1.972656 22.292969 C 1.972656 21.871094 2 21.445312 1.96875 21.023438 C 1.9375 20.625 1.964844 20.222656 1.964844 19.828125 C 1.964844 19.410156 1.945312 18.992188 1.96875 18.570312 C 1.992188 18.183594 1.960938 17.792969 1.964844 17.40625 C 1.964844 17.023438 1.988281 16.636719 1.972656 16.257812 C 1.957031 15.671875 2 15.082031 1.957031 14.496094 C 1.941406 14.285156 1.992188 14.070312 1.976562 13.855469 C 1.960938 13.570312 1.949219 13.285156 1.949219 13 C 1.949219 12.671875 1.976562 12.34375 1.96875 12.015625 C 1.957031 11.65625 1.972656 11.292969 1.96875 10.933594 C 1.96875 10.65625 1.953125 10.382812 1.96875 10.101562 C 1.988281 9.726562 1.949219 9.34375 1.960938 8.964844 C 1.972656 8.679688 1.984375 8.398438 1.96875 8.117188 C 1.953125 7.78125 2 7.449219 1.964844 7.109375 C 1.941406 6.914062 1.957031 6.699219 1.953125 6.492188 C 1.949219 6.253906 2.019531 6.027344 1.996094 5.785156 C 1.976562 5.570312 2.132812 5.378906 2.277344 5.222656 C 2.621094 4.847656 3.070312 4.671875 3.5625 4.578125 C 3.917969 4.507812 4.261719 4.378906 4.613281 4.292969 C 5.199219 4.15625 5.769531 3.949219 6.367188 3.839844 C 6.578125 3.800781 6.78125 3.710938 6.992188 3.65625 C 7.289062 3.578125 7.589844 3.507812 7.886719 3.433594 C 8.046875 3.394531 8.207031 3.359375 8.351562 3.277344 C 8.527344 3.175781 8.734375 3.226562 8.917969 3.167969 C 9.183594 3.082031 9.449219 3.003906 9.714844 2.929688 C 9.976562 2.855469 10.253906 2.800781 10.519531 2.726562 C 10.789062 2.652344 11.074219 2.632812 11.328125 2.53125 C 11.554688 2.441406 11.785156 2.390625 12.011719 2.332031 C 12.351562 2.246094 12.691406 2.164062 13.027344 2.070312 C 13.519531 1.933594 14.015625 1.8125 14.507812 1.675781 C 14.925781 1.558594 15.351562 1.472656 15.769531 1.359375 C 16.214844 1.242188 16.660156 1.132812 17.097656 1 C 17.296875 0.9375 17.507812 0.898438 17.714844 0.84375 C 17.8125 0.816406 17.894531 0.902344 17.992188 0.917969 C 18.480469 1.011719 18.96875 1.105469 19.441406 1.25 C 19.984375 1.414062 20.539062 1.535156 21.078125 1.707031 C 21.597656 1.875 22.128906 1.996094 22.652344 2.148438 C 22.851562 2.207031 23.042969 2.273438 23.25 2.296875 C 23.382812 2.3125 23.488281 2.40625 23.625 2.445312 C 23.902344 2.519531 24.160156 2.460938 24.414062 2.421875 C 24.679688 2.378906 24.898438 2.488281 25.140625 2.523438 C 25.472656 2.566406 25.785156 2.691406 26.101562 2.78125 C 26.304688 2.839844 26.515625 2.882812 26.714844 2.988281 C 26.882812 3.078125 27.078125 3.140625 27.261719 3.210938 C 27.519531 3.3125 27.640625 3.5 27.566406 3.757812 C 27.507812 3.972656 27.585938 4.171875 27.617188 4.375 C 27.628906 4.464844 27.699219 4.425781 27.746094 4.433594 C 27.992188 4.472656 28.003906 4.488281 28.003906 4.726562 C 28.007812 5.300781 28.011719 5.875 28.019531 6.453125 C 28.023438 6.496094 27.996094 6.554688 28.058594 6.582031 C 28.058594 6.65625 28.058594 6.730469 28.058594 6.804688 C 28.027344 6.832031 28.019531 6.867188 28.019531 6.902344 Z M 28.019531 6.902344 " fill-opacity="1" fill-rule="nonzero"/></g><g clip-path="url(#b9f5f7a1df)"><path fill="#89e5d3" d="M 27.722656 5.894531 C 27.722656 6.285156 27.703125 6.675781 27.726562 7.066406 C 27.761719 7.589844 27.707031 8.113281 27.71875 8.636719 C 27.738281 9.480469 27.726562 10.324219 27.730469 11.167969 C 27.730469 11.582031 27.726562 11.992188 27.726562 12.402344 C 27.726562 13.101562 27.722656 13.804688 27.722656 14.503906 C 27.722656 15.246094 27.734375 15.988281 27.722656 16.734375 C 27.714844 17.171875 27.71875 17.609375 27.71875 18.046875 C 27.71875 18.507812 27.726562 18.96875 27.746094 19.429688 C 27.761719 19.851562 27.722656 20.285156 27.71875 20.710938 C 27.714844 21.164062 27.699219 21.621094 27.730469 22.074219 C 27.78125 22.753906 27.523438 22.757812 27.0625 22.90625 C 26.847656 22.976562 26.625 23.050781 26.402344 23.113281 C 26.265625 23.152344 26.125 23.160156 25.988281 23.199219 C 25.375 23.378906 24.75 23.527344 24.128906 23.6875 C 23.371094 23.882812 22.605469 24.066406 21.851562 24.28125 C 21.246094 24.457031 20.628906 24.585938 20.023438 24.757812 C 19.421875 24.929688 18.816406 25.105469 18.207031 25.257812 C 17.617188 25.402344 17.039062 25.585938 16.441406 25.710938 C 15.988281 25.804688 15.550781 25.976562 15.09375 26.074219 C 14.527344 26.195312 13.976562 26.378906 13.417969 26.527344 C 13.179688 26.589844 12.933594 26.636719 12.6875 26.652344 C 12.523438 26.664062 12.375 26.570312 12.242188 26.464844 C 12.210938 26.441406 12.199219 26.402344 12.21875 26.367188 C 12.316406 26.195312 12.246094 26.019531 12.246094 25.84375 C 12.242188 25.316406 12.242188 24.789062 12.242188 24.261719 C 12.242188 23.628906 12.246094 22.992188 12.246094 22.359375 C 12.246094 20.460938 12.253906 18.5625 12.242188 16.664062 C 12.242188 16.117188 12.230469 15.570312 12.230469 15.027344 C 12.226562 14.214844 12.234375 13.40625 12.242188 12.59375 C 12.246094 11.9375 12.242188 11.28125 12.242188 10.628906 C 12.246094 10.167969 12.25 9.707031 12.242188 9.25 C 12.242188 9.117188 12.269531 9.074219 12.414062 9.0625 C 12.773438 9.03125 13.132812 8.972656 13.488281 8.902344 C 13.757812 8.847656 14.035156 8.796875 14.308594 8.765625 C 14.609375 8.730469 14.902344 8.65625 15.199219 8.601562 C 15.496094 8.550781 15.792969 8.453125 16.085938 8.417969 C 16.726562 8.335938 17.347656 8.171875 17.980469 8.050781 C 18.484375 7.953125 18.996094 7.871094 19.492188 7.730469 C 20.097656 7.558594 20.722656 7.46875 21.320312 7.261719 C 21.6875 7.136719 22.070312 7.066406 22.445312 6.972656 C 22.960938 6.84375 23.472656 6.699219 23.984375 6.542969 C 24.292969 6.445312 24.605469 6.347656 24.914062 6.253906 C 25.160156 6.179688 25.398438 6.089844 25.632812 5.988281 C 25.84375 5.894531 26.0625 5.835938 26.269531 5.730469 C 26.652344 5.542969 27.058594 5.398438 27.417969 5.160156 C 27.433594 5.148438 27.449219 5.144531 27.46875 5.140625 C 27.738281 5.03125 27.734375 5.03125 27.726562 5.320312 C 27.722656 5.511719 27.726562 5.703125 27.726562 5.894531 C 27.726562 5.894531 27.722656 5.894531 27.722656 5.894531 Z M 14.625 12.25 C 14.875 12.257812 15.097656 12.207031 15.308594 12.140625 C 15.855469 11.964844 16.402344 11.808594 16.941406 11.601562 C 17.574219 11.359375 18.179688 11.082031 18.753906 10.730469 C 19.140625 10.496094 19.234375 10.09375 19.015625 9.730469 C 18.964844 9.652344 18.914062 9.644531 18.851562 9.660156 C 18.480469 9.757812 18.101562 9.839844 17.738281 9.972656 C 17.503906 10.0625 17.25 10.09375 17.019531 10.207031 C 16.738281 10.34375 16.410156 10.332031 16.125 10.472656 C 15.929688 10.566406 15.714844 10.609375 15.503906 10.664062 C 15.4375 10.679688 15.410156 10.675781 15.375 10.617188 C 15.253906 10.417969 15.058594 10.367188 14.84375 10.359375 C 14.582031 10.355469 14.375 10.488281 14.160156 10.613281 C 13.6875 10.886719 13.613281 11.585938 14.003906 11.871094 C 14.027344 11.890625 14.046875 11.917969 14.0625 11.941406 C 14.199219 12.160156 14.375 12.304688 14.625 12.25 Z M 13.050781 11.792969 C 13.042969 11.226562 13.070312 10.660156 13.015625 10.097656 C 13.011719 10.042969 13.007812 9.964844 12.945312 9.964844 C 12.878906 9.964844 12.875 10.046875 12.867188 10.105469 C 12.839844 10.429688 12.847656 10.753906 12.839844 11.078125 C 12.816406 11.792969 12.828125 12.507812 12.828125 13.222656 C 12.828125 13.597656 12.824219 13.972656 12.832031 14.34375 C 12.851562 15.175781 12.789062 16.007812 12.828125 16.839844 C 12.84375 17.214844 12.828125 17.589844 12.828125 17.964844 C 12.828125 18.9375 12.828125 19.90625 12.828125 20.878906 C 12.828125 21.042969 12.789062 21.21875 12.804688 21.371094 C 12.855469 21.875 12.816406 22.378906 12.828125 22.882812 C 12.84375 23.695312 12.832031 24.511719 12.832031 25.328125 C 12.832031 25.4375 12.8125 25.597656 12.941406 25.601562 C 13.070312 25.601562 13.050781 25.4375 13.050781 25.328125 C 13.054688 24.367188 13.054688 23.410156 13.054688 22.449219 C 13.054688 22.125 13.058594 21.796875 13.066406 21.46875 C 13.078125 21.011719 13.046875 20.550781 13.058594 20.089844 C 13.074219 19.617188 13.039062 19.148438 13.078125 18.675781 C 13.101562 18.371094 13.054688 18.0625 13.0625 17.757812 C 13.082031 17.199219 13.03125 16.636719 13.085938 16.078125 C 13.109375 15.851562 13.066406 15.628906 13.066406 15.402344 C 13.070312 15.199219 13.085938 14.992188 13.078125 14.789062 C 13.074219 14.5625 13.046875 14.332031 13.0625 14.101562 C 13.078125 13.832031 13.109375 13.558594 13.078125 13.289062 C 13.027344 12.789062 13.078125 12.292969 13.050781 11.792969 Z M 26.886719 9.132812 C 26.910156 8.691406 26.792969 8.292969 26.515625 7.953125 C 26.25 7.628906 25.964844 7.332031 25.480469 7.46875 C 25.457031 7.476562 25.429688 7.472656 25.410156 7.464844 C 25.164062 7.390625 24.9375 7.457031 24.71875 7.558594 C 23.976562 7.898438 23.574219 8.507812 23.558594 9.300781 C 23.550781 9.769531 23.671875 10.242188 23.957031 10.667969 C 24.238281 11.085938 24.628906 11.222656 25.066406 11.320312 C 25.160156 11.34375 25.269531 11.375 25.351562 11.347656 C 25.765625 11.214844 26.15625 11.035156 26.4375 10.683594 C 26.804688 10.230469 26.832031 9.679688 26.886719 9.132812 Z M 24.113281 22.882812 C 24.417969 22.925781 24.679688 22.753906 24.964844 22.699219 C 25.628906 22.582031 26.246094 22.316406 26.859375 22.035156 C 27.152344 21.898438 27.21875 21.664062 27.167969 21.417969 C 27.09375 21.070312 27.042969 20.714844 26.972656 20.367188 C 26.886719 19.957031 26.59375 19.808594 26.210938 19.988281 C 25.761719 20.199219 25.277344 20.316406 24.816406 20.496094 C 24.492188 20.621094 24.152344 20.699219 23.828125 20.839844 C 23.398438 21.027344 23.320312 21.101562 23.351562 21.4375 C 23.382812 21.734375 23.417969 22.03125 23.464844 22.328125 C 23.539062 22.792969 23.59375 22.835938 24.058594 22.875 C 24.078125 22.875 24.097656 22.878906 24.113281 22.882812 Z M 13.46875 25.351562 C 13.5625 25.257812 13.609375 24.765625 13.539062 24.691406 C 13.5 24.648438 13.429688 24.636719 13.429688 24.703125 C 13.421875 24.917969 13.378906 25.132812 13.46875 25.351562 Z M 14.140625 12.484375 C 14.109375 12.417969 14.035156 12.433594 13.980469 12.40625 C 13.921875 12.382812 13.867188 12.359375 13.832031 12.308594 C 13.808594 12.265625 13.78125 12.230469 13.734375 12.269531 C 13.699219 12.300781 13.707031 12.351562 13.726562 12.390625 C 13.800781 12.535156 13.992188 12.578125 14.140625 12.484375 Z M 13.878906 25.445312 C 14.015625 25.292969 13.921875 25.167969 13.914062 25.046875 C 13.910156 25.023438 13.878906 24.992188 13.84375 25.011719 C 13.8125 25.027344 13.789062 25.058594 13.800781 25.101562 C 13.824219 25.207031 13.847656 25.308594 13.878906 25.445312 Z M 26.84375 12.535156 C 26.84375 12.484375 26.84375 12.460938 26.84375 12.4375 C 26.84375 12.375 26.832031 12.316406 26.761719 12.328125 C 26.6875 12.335938 26.695312 12.402344 26.699219 12.457031 C 26.707031 12.511719 26.722656 12.5625 26.734375 12.617188 C 26.738281 12.644531 26.730469 12.683594 26.769531 12.6875 C 26.816406 12.691406 26.828125 12.648438 26.835938 12.617188 C 26.847656 12.582031 26.84375 12.546875 26.84375 12.535156 Z M 26.511719 12.832031 C 26.492188 12.789062 26.554688 12.675781 26.476562 12.671875 C 26.375 12.667969 26.410156 12.78125 26.402344 12.847656 C 26.402344 12.878906 26.402344 12.910156 26.402344 12.9375 C 26.402344 12.980469 26.402344 13.042969 26.449219 13.042969 C 26.511719 13.046875 26.507812 12.984375 26.511719 12.9375 C 26.515625 12.90625 26.511719 12.875 26.511719 12.832031 Z M 2.238281 25.054688 C 2.128906 24.59375 2.222656 24.125 2.226562 23.660156 C 2.230469 23.0625 2.222656 22.460938 2.253906 21.855469 C 2.273438 21.484375 2.246094 21.101562 2.242188 20.722656 C 2.230469 20.160156 2.238281 19.601562 2.238281 19.039062 C 2.238281 18.382812 2.238281 17.726562 2.238281 17.070312 C 2.238281 16.019531 2.238281 14.96875 2.238281 13.914062 C 2.238281 13.378906 2.253906 12.835938 2.234375 12.300781 C 2.214844 11.75 2.269531 11.199219 2.234375 10.652344 C 2.210938 10.261719 2.214844 9.871094 2.222656 9.484375 C 2.242188 8.503906 2.222656 7.519531 2.238281 6.539062 C 2.238281 6.457031 2.273438 6.375 2.246094 6.285156 C 2.230469 6.238281 2.25 6.21875 2.316406 6.230469 C 2.53125 6.277344 2.726562 6.382812 2.945312 6.414062 C 3.421875 6.484375 3.878906 6.648438 4.339844 6.785156 C 4.808594 6.921875 5.28125 7.042969 5.746094 7.179688 C 6.207031 7.3125 6.671875 7.449219 7.144531 7.550781 C 7.570312 7.644531 7.984375 7.78125 8.402344 7.894531 C 8.78125 8 9.167969 8.074219 9.539062 8.191406 C 10.113281 8.367188 10.699219 8.484375 11.265625 8.675781 C 11.453125 8.738281 11.644531 8.746094 11.824219 8.804688 C 11.933594 8.839844 12.007812 8.914062 11.972656 9.015625 C 11.894531 9.234375 11.9375 9.460938 11.933594 9.671875 C 11.929688 10.070312 11.949219 10.46875 11.949219 10.867188 C 11.949219 11.675781 11.949219 12.488281 11.949219 13.296875 C 11.949219 14.003906 11.957031 14.710938 11.949219 15.414062 C 11.941406 15.863281 11.984375 16.3125 11.964844 16.753906 C 11.941406 17.304688 11.964844 17.859375 11.933594 18.410156 C 11.914062 18.789062 11.9375 19.171875 11.949219 19.550781 C 11.96875 20.109375 11.960938 20.664062 11.957031 21.21875 C 11.949219 22.007812 11.945312 22.792969 11.941406 23.582031 C 11.9375 23.996094 11.945312 24.410156 11.945312 24.824219 C 11.949219 25.257812 11.953125 25.691406 11.953125 26.125 C 11.953125 26.6875 11.945312 27.253906 11.949219 27.816406 C 11.953125 27.945312 11.925781 27.96875 11.796875 27.933594 C 11.398438 27.820312 10.984375 27.75 10.597656 27.59375 C 10.554688 27.578125 10.5 27.589844 10.453125 27.582031 C 10.320312 27.570312 10.21875 27.550781 10.210938 27.363281 C 10.199219 27.144531 10.097656 26.941406 9.957031 26.765625 C 9.902344 26.691406 9.824219 26.648438 9.730469 26.621094 C 9.289062 26.488281 8.847656 26.371094 8.40625 26.25 C 8.105469 26.167969 7.800781 26.074219 7.488281 26.023438 C 7.3125 25.996094 7.144531 25.921875 6.96875 25.871094 C 6.527344 25.738281 6.074219 25.65625 5.636719 25.515625 C 5.117188 25.351562 4.589844 25.230469 4.066406 25.089844 C 3.875 25.039062 3.703125 25.113281 3.597656 25.292969 C 3.5625 25.351562 3.519531 25.40625 3.503906 25.46875 C 3.460938 25.65625 3.34375 25.660156 3.195312 25.617188 C 2.902344 25.535156 2.601562 25.449219 2.304688 25.367188 C 2.25 25.355469 2.238281 25.324219 2.238281 25.277344 C 2.238281 25.203125 2.238281 25.128906 2.238281 25.054688 Z M 2.898438 16.570312 C 2.898438 16.570312 2.902344 16.570312 2.902344 16.570312 C 2.902344 16.453125 2.902344 16.335938 2.902344 16.21875 C 2.898438 16.183594 2.925781 16.121094 2.867188 16.113281 C 2.800781 16.105469 2.804688 16.167969 2.789062 16.210938 C 2.714844 16.382812 2.757812 16.5625 2.738281 16.738281 C 2.707031 17.039062 2.722656 17.347656 2.71875 17.652344 C 2.71875 17.699219 2.730469 17.75 2.773438 17.753906 C 2.828125 17.765625 2.859375 17.722656 2.867188 17.664062 C 2.871094 17.628906 2.898438 17.597656 2.898438 17.5625 C 2.898438 17.230469 2.898438 16.902344 2.898438 16.570312 Z M 3.175781 17.800781 C 3.289062 17.667969 3.273438 17.515625 3.265625 17.367188 C 3.261719 17.320312 3.226562 17.285156 3.179688 17.285156 C 3.132812 17.289062 3.128906 17.335938 3.128906 17.371094 C 3.128906 17.511719 3.089844 17.660156 3.175781 17.800781 Z M 3.933594 8.304688 C 3.929688 8.210938 3.90625 8.125 3.875 8.039062 C 3.871094 8.035156 3.835938 8.039062 3.828125 8.046875 C 3.746094 8.132812 3.792969 8.226562 3.820312 8.320312 C 3.828125 8.359375 3.796875 8.433594 3.875 8.429688 C 3.960938 8.425781 3.917969 8.347656 3.933594 8.304688 Z M 11.410156 24.371094 C 11.496094 24.261719 11.5 24.171875 11.503906 24.082031 C 11.507812 24.03125 11.5 23.972656 11.441406 23.972656 C 11.382812 23.972656 11.375 24.046875 11.375 24.085938 C 11.375 24.171875 11.394531 24.257812 11.410156 24.371094 Z M 10.585938 12.070312 C 10.574219 12.023438 10.621094 11.929688 10.539062 11.921875 C 10.4375 11.914062 10.46875 12.03125 10.445312 12.089844 C 10.425781 12.148438 10.464844 12.234375 10.511719 12.234375 C 10.597656 12.234375 10.582031 12.140625 10.585938 12.070312 Z M 10.042969 11.496094 C 10.078125 11.433594 10.085938 11.34375 9.996094 11.335938 C 9.914062 11.332031 9.949219 11.433594 9.949219 11.484375 C 9.945312 11.542969 9.9375 11.644531 10.011719 11.644531 C 10.097656 11.648438 10.074219 11.566406 10.042969 11.496094 Z M 11.105469 24.464844 C 11.078125 24.425781 11.140625 24.324219 11.054688 24.328125 C 10.953125 24.328125 10.992188 24.453125 10.964844 24.515625 C 10.949219 24.558594 10.972656 24.65625 11.042969 24.644531 C 11.128906 24.632812 11.097656 24.539062 11.105469 24.464844 Z M 2.902344 24.679688 C 2.917969 24.710938 2.871094 24.808594 2.949219 24.792969 C 3.058594 24.773438 2.988281 24.644531 3.035156 24.574219 C 3.054688 24.539062 3.015625 24.484375 2.992188 24.492188 C 2.910156 24.515625 2.890625 24.589844 2.902344 24.679688 Z M 4.34375 8.703125 C 4.421875 8.558594 4.378906 8.453125 4.332031 8.320312 C 4.242188 8.457031 4.28125 8.566406 4.34375 8.703125 Z M 23.273438 2.707031 C 23.164062 2.785156 23.03125 2.777344 22.945312 2.863281 C 22.730469 3.074219 22.675781 3.554688 23.027344 3.765625 C 23.25 3.894531 23.507812 3.894531 23.757812 3.933594 C 24.007812 3.96875 24.265625 3.96875 24.507812 4.035156 C 24.792969 4.109375 25.085938 4.089844 25.402344 4.15625 C 25.101562 4.230469 24.824219 4.285156 24.550781 4.363281 C 24.195312 4.472656 23.828125 4.523438 23.480469 4.648438 C 23.078125 4.789062 22.644531 4.820312 22.246094 4.960938 C 21.972656 5.054688 21.671875 5.042969 21.414062 5.183594 C 21.339844 5.222656 21.253906 5.25 21.167969 5.25 C 20.898438 5.25 20.65625 5.359375 20.40625 5.445312 C 20.246094 5.5 20.078125 5.519531 19.914062 5.558594 C 19.679688 5.613281 19.445312 5.679688 19.210938 5.738281 C 18.769531 5.84375 18.328125 5.929688 17.898438 6.070312 C 17.628906 6.160156 17.34375 6.199219 17.074219 6.28125 C 16.59375 6.421875 16.097656 6.507812 15.621094 6.671875 C 15.414062 6.746094 15.183594 6.761719 14.964844 6.816406 C 14.566406 6.917969 14.167969 7.03125 13.773438 7.136719 C 13.328125 7.257812 12.875 7.347656 12.449219 7.511719 C 12.128906 7.636719 11.832031 7.582031 11.550781 7.488281 C 11.296875 7.40625 11.035156 7.355469 10.785156 7.269531 C 10.449219 7.148438 10.097656 7.074219 9.753906 6.980469 C 9.113281 6.804688 8.472656 6.621094 7.828125 6.460938 C 7.339844 6.335938 6.863281 6.164062 6.375 6.0625 C 5.828125 5.949219 5.300781 5.769531 4.761719 5.640625 C 4.414062 5.554688 4.058594 5.476562 3.714844 5.355469 C 3.484375 5.273438 3.25 5.222656 3.011719 5.179688 C 2.945312 5.164062 2.851562 5.167969 2.84375 5.109375 C 2.828125 5.03125 2.917969 4.984375 2.984375 4.964844 C 3.21875 4.894531 3.457031 4.84375 3.6875 4.769531 C 3.917969 4.695312 4.152344 4.636719 4.382812 4.582031 C 4.789062 4.488281 5.195312 4.394531 5.589844 4.277344 C 5.941406 4.175781 6.316406 4.167969 6.652344 4.003906 C 6.816406 3.925781 7.023438 3.9375 7.199219 3.875 C 7.550781 3.75 7.921875 3.683594 8.28125 3.59375 C 8.59375 3.511719 8.902344 3.40625 9.226562 3.351562 C 9.480469 3.3125 9.726562 3.214844 9.980469 3.148438 C 10.414062 3.035156 10.851562 2.933594 11.28125 2.808594 C 11.734375 2.679688 12.203125 2.609375 12.644531 2.441406 C 12.824219 2.371094 13.019531 2.351562 13.207031 2.292969 C 13.648438 2.152344 14.101562 2.046875 14.554688 1.9375 C 15.011719 1.824219 15.46875 1.703125 15.925781 1.585938 C 16.332031 1.480469 16.742188 1.398438 17.136719 1.257812 C 17.488281 1.136719 17.824219 1.132812 18.179688 1.253906 C 18.636719 1.410156 19.121094 1.488281 19.570312 1.675781 C 19.675781 1.71875 19.792969 1.707031 19.90625 1.742188 C 20.25 1.847656 20.597656 1.933594 20.945312 2.027344 C 21.34375 2.132812 21.734375 2.265625 22.128906 2.378906 C 22.382812 2.453125 22.644531 2.503906 22.902344 2.582031 C 23.023438 2.617188 23.144531 2.65625 23.273438 2.707031 Z M 20.363281 2.425781 C 20.355469 2.363281 19.988281 2.160156 19.933594 2.179688 C 19.898438 2.195312 19.890625 2.222656 19.898438 2.253906 C 19.910156 2.335938 20.246094 2.503906 20.328125 2.476562 C 20.355469 2.464844 20.371094 2.453125 20.363281 2.425781 Z M 11.53125 6.726562 C 11.492188 6.730469 11.453125 6.722656 11.441406 6.757812 C 11.425781 6.792969 11.4375 6.828125 11.46875 6.855469 C 11.550781 6.933594 11.652344 6.96875 11.757812 6.984375 C 11.828125 6.996094 11.875 6.925781 11.820312 6.882812 C 11.738281 6.8125 11.640625 6.738281 11.53125 6.726562 Z M 19.550781 2.371094 C 19.535156 2.355469 19.523438 2.335938 19.503906 2.320312 C 19.421875 2.246094 19.3125 2.222656 19.214844 2.179688 C 19.175781 2.164062 19.113281 2.203125 19.132812 2.246094 C 19.191406 2.371094 19.324219 2.394531 19.445312 2.429688 C 19.492188 2.441406 19.527344 2.421875 19.550781 2.371094 Z M 11.992188 6.765625 C 11.953125 6.765625 11.914062 6.773438 11.917969 6.820312 C 11.925781 6.894531 11.984375 6.914062 12.046875 6.914062 C 12.082031 6.914062 12.136719 6.921875 12.125 6.871094 C 12.109375 6.8125 12.0625 6.765625 11.992188 6.765625 Z M 12.242188 28.070312 C 12.242188 27.640625 12.242188 27.242188 12.242188 26.820312 C 12.425781 26.921875 12.605469 26.957031 12.800781 26.960938 C 13.03125 26.964844 13.238281 26.882812 13.449219 26.8125 C 13.667969 26.742188 13.894531 26.679688 14.121094 26.625 C 14.484375 26.53125 14.851562 26.453125 15.214844 26.359375 C 15.558594 26.273438 15.90625 26.179688 16.25 26.089844 C 16.660156 25.980469 17.066406 25.855469 17.476562 25.769531 C 18.210938 25.613281 18.925781 25.371094 19.660156 25.210938 C 20.085938 25.121094 20.496094 24.980469 20.921875 24.875 C 21.414062 24.757812 21.898438 24.609375 22.390625 24.492188 C 22.679688 24.421875 22.96875 24.34375 23.257812 24.273438 C 23.542969 24.199219 23.832031 24.132812 24.117188 24.0625 C 24.707031 23.914062 25.285156 23.71875 25.878906 23.574219 C 26.261719 23.484375 26.65625 23.421875 27.03125 23.292969 C 27.125 23.261719 27.203125 23.210938 27.292969 23.167969 C 27.382812 23.125 27.449219 23.109375 27.480469 23.257812 C 27.53125 23.503906 27.492188 23.746094 27.5 23.988281 C 27.503906 24.125 27.335938 24.152344 27.238281 24.164062 C 26.835938 24.210938 26.453125 24.328125 26.070312 24.445312 C 25.964844 24.476562 25.917969 24.464844 25.855469 24.363281 C 25.691406 24.082031 25.492188 24.015625 25.179688 24.105469 C 24.742188 24.230469 24.296875 24.316406 23.863281 24.441406 C 23.433594 24.566406 23 24.675781 22.570312 24.804688 C 22.183594 24.921875 21.785156 25.007812 21.390625 25.101562 C 21.066406 25.179688 20.75 25.277344 20.425781 25.351562 C 19.730469 25.519531 19.050781 25.730469 18.355469 25.898438 C 17.945312 25.992188 17.535156 26.101562 17.128906 26.21875 C 16.40625 26.433594 15.671875 26.59375 14.957031 26.835938 C 14.773438 26.894531 14.71875 27.050781 14.6875 27.167969 C 14.617188 27.441406 14.457031 27.511719 14.210938 27.558594 C 13.761719 27.644531 13.3125 27.75 12.878906 27.898438 C 12.675781 27.964844 12.464844 27.988281 12.242188 28.070312 Z M 26.769531 24.035156 C 26.726562 23.980469 26.75 23.875 26.65625 23.851562 C 26.621094 23.839844 26.597656 23.894531 26.601562 23.929688 C 26.613281 24.011719 26.625 24.097656 26.710938 24.125 C 26.742188 24.136719 26.765625 24.085938 26.769531 24.035156 Z M 26.371094 23.871094 C 26.355469 23.820312 26.398438 23.738281 26.296875 23.734375 C 26.253906 23.734375 26.214844 23.753906 26.238281 23.800781 C 26.265625 23.855469 26.222656 23.953125 26.324219 23.960938 C 26.398438 23.96875 26.355469 23.902344 26.371094 23.871094 Z M 26.78125 3.339844 C 25.601562 3.398438 24.453125 3.144531 23.292969 3.027344 C 23.542969 2.929688 23.796875 2.878906 24.027344 2.753906 C 24.105469 2.714844 24.183594 2.746094 24.261719 2.734375 C 24.652344 2.679688 25.027344 2.792969 25.398438 2.890625 C 25.6875 2.964844 25.976562 3.046875 26.261719 3.140625 C 26.4375 3.195312 26.597656 3.292969 26.78125 3.339844 Z M 25.136719 3.046875 C 25.03125 2.871094 24.804688 2.835938 24.507812 2.953125 C 24.636719 3.054688 24.847656 3.085938 25.136719 3.046875 Z M 23.328125 3.621094 C 23.421875 3.628906 23.503906 3.59375 23.597656 3.605469 C 23.890625 3.644531 24.183594 3.691406 24.476562 3.707031 C 24.980469 3.730469 25.472656 3.859375 25.976562 3.835938 C 26.164062 3.824219 26.34375 3.925781 26.527344 3.867188 C 26.632812 3.832031 26.734375 3.804688 26.847656 3.800781 C 26.957031 3.800781 27.066406 3.777344 27.171875 3.765625 C 27.210938 3.757812 27.246094 3.746094 27.242188 3.695312 C 27.238281 3.652344 27.199219 3.664062 27.171875 3.65625 C 26.84375 3.589844 26.511719 3.621094 26.183594 3.609375 C 25.863281 3.597656 25.546875 3.5625 25.230469 3.546875 C 24.832031 3.523438 24.4375 3.445312 24.039062 3.398438 C 23.753906 3.371094 23.46875 3.351562 23.199219 3.246094 C 23.078125 3.199219 23.039062 3.21875 23.054688 3.328125 C 23.058594 3.5 23.171875 3.613281 23.328125 3.621094 Z M 23.328125 3.621094 " fill-opacity="1" fill-rule="nonzero"/></g><g clip-path="url(#507f3389a2)"><path fill="#e9e3d7" d="M 28.058594 12.953125 L 28.046875 12.957031 C 28.046875 12.957031 28.03125 12.957031 28.03125 12.957031 C 28 12.574219 28 12.1875 28.027344 11.804688 C 28.035156 11.804688 28.046875 11.804688 28.058594 11.804688 C 28.058594 12.1875 28.058594 12.570312 28.058594 12.953125 Z M 12.242188 8.386719 C 12.242188 8.46875 12.28125 8.496094 12.34375 8.453125 C 12.457031 8.375 12.585938 8.378906 12.710938 8.34375 C 13.398438 8.160156 14.089844 7.976562 14.777344 7.789062 C 15.285156 7.652344 15.792969 7.515625 16.300781 7.382812 C 16.558594 7.320312 16.816406 7.253906 17.074219 7.191406 C 17.304688 7.136719 17.535156 7.054688 17.769531 6.992188 C 18.292969 6.84375 18.824219 6.710938 19.351562 6.574219 C 19.777344 6.464844 20.210938 6.371094 20.632812 6.242188 C 20.988281 6.136719 21.351562 6.070312 21.707031 5.96875 C 22.347656 5.789062 22.988281 5.589844 23.636719 5.441406 C 24.136719 5.328125 24.628906 5.175781 25.128906 5.054688 C 25.367188 4.996094 25.601562 4.894531 25.839844 4.851562 C 26.277344 4.777344 26.695312 4.621094 27.128906 4.539062 C 27.28125 4.511719 27.292969 4.40625 27.214844 4.140625 C 27.171875 4 27.085938 4.070312 27.011719 4.089844 C 26.890625 4.125 26.769531 4.164062 26.648438 4.199219 C 26.214844 4.320312 25.777344 4.421875 25.347656 4.535156 C 24.753906 4.691406 24.160156 4.824219 23.570312 4.988281 C 23.132812 5.113281 22.691406 5.214844 22.25 5.324219 C 21.757812 5.449219 21.277344 5.605469 20.78125 5.714844 C 20.203125 5.84375 19.636719 6.011719 19.0625 6.152344 C 18.933594 6.183594 18.824219 6.257812 18.699219 6.277344 C 18.402344 6.328125 18.117188 6.425781 17.820312 6.488281 C 17.328125 6.585938 16.851562 6.742188 16.363281 6.863281 C 15.886719 6.980469 15.414062 7.121094 14.9375 7.246094 C 14.488281 7.363281 14.035156 7.472656 13.589844 7.601562 C 13.234375 7.703125 12.855469 7.722656 12.507812 7.894531 C 12.34375 7.972656 12.179688 7.960938 12.246094 8.175781 C 12.242188 8.265625 12.246094 8.324219 12.242188 8.386719 Z M 11.921875 8.039062 C 11.972656 7.914062 11.910156 7.875 11.804688 7.84375 C 11.457031 7.742188 11.105469 7.667969 10.757812 7.570312 C 10.300781 7.445312 9.839844 7.320312 9.378906 7.203125 C 8.882812 7.078125 8.394531 6.914062 7.894531 6.785156 C 7.335938 6.636719 6.769531 6.507812 6.214844 6.34375 C 5.691406 6.183594 5.152344 6.066406 4.628906 5.90625 C 4.0625 5.730469 3.484375 5.585938 2.917969 5.421875 C 2.566406 5.316406 2.324219 5.460938 2.28125 5.789062 C 2.277344 5.832031 2.25 5.902344 2.320312 5.910156 C 2.507812 5.9375 2.660156 6.050781 2.835938 6.09375 C 3.367188 6.230469 3.902344 6.351562 4.433594 6.488281 C 4.859375 6.597656 5.273438 6.746094 5.699219 6.835938 C 6.171875 6.9375 6.636719 7.074219 7.097656 7.21875 C 7.574219 7.367188 8.058594 7.46875 8.535156 7.609375 C 8.824219 7.699219 9.128906 7.726562 9.414062 7.84375 C 9.496094 7.878906 9.582031 7.941406 9.667969 7.941406 C 9.957031 7.933594 10.226562 8.050781 10.488281 8.132812 C 10.953125 8.28125 11.433594 8.347656 11.917969 8.511719 C 11.894531 8.335938 11.867188 8.183594 11.921875 8.039062 Z M 15.097656 11.890625 C 15.101562 11.886719 15.109375 11.886719 15.113281 11.882812 C 15.726562 11.730469 16.324219 11.519531 16.910156 11.28125 C 17.515625 11.039062 18.125 10.796875 18.683594 10.445312 C 18.804688 10.367188 18.820312 10.25 18.855469 10.144531 C 18.871094 10.101562 18.84375 9.976562 18.78125 9.996094 C 18.683594 10.027344 18.578125 10.023438 18.484375 10.066406 C 18.011719 10.269531 17.507812 10.382812 17.019531 10.535156 C 16.4375 10.71875 15.832031 10.828125 15.25 11.023438 C 14.980469 11.113281 14.773438 11.375 14.777344 11.65625 C 14.78125 11.882812 14.890625 11.960938 15.097656 11.890625 Z M 18.027344 10.5625 C 17.644531 10.695312 17.253906 10.792969 16.863281 10.90625 C 16.839844 10.910156 16.816406 10.917969 16.792969 10.914062 C 16.742188 10.910156 16.667969 10.945312 16.648438 10.875 C 16.625 10.804688 16.710938 10.785156 16.753906 10.773438 C 17.003906 10.679688 17.257812 10.605469 17.507812 10.519531 C 17.667969 10.464844 17.824219 10.398438 17.984375 10.347656 C 18.207031 10.273438 18.429688 10.199219 18.710938 10.21875 C 18.492188 10.433594 18.25 10.484375 18.027344 10.5625 Z M 15.972656 11.070312 C 15.722656 11.199219 15.46875 11.328125 15.214844 11.453125 C 15.179688 11.472656 15.140625 11.480469 15.121094 11.4375 C 15.089844 11.371094 15.121094 11.316406 15.175781 11.28125 C 15.378906 11.152344 15.589844 11.039062 15.832031 10.992188 C 15.886719 10.980469 15.9375 10.964844 15.988281 10.957031 C 16.019531 10.953125 16.050781 10.964844 16.058594 11.011719 C 16.03125 11.03125 16.003906 11.054688 15.972656 11.070312 Z M 14.613281 10.691406 C 14.203125 10.847656 14.050781 11.050781 14.085938 11.410156 C 14.109375 11.632812 14.328125 11.902344 14.515625 11.929688 C 14.335938 11.433594 14.507812 11.023438 15.195312 10.792969 C 15.089844 10.640625 14.847656 10.601562 14.613281 10.691406 Z M 14.613281 10.691406 " fill-opacity="1" fill-rule="nonzero"/></g><path fill="#edbac3" d="M 26.554688 9.136719 C 26.601562 9.488281 26.566406 9.914062 26.359375 10.277344 C 26.160156 10.632812 25.902344 10.964844 25.445312 11.050781 C 25.074219 11.117188 24.75 11.007812 24.492188 10.773438 C 24.15625 10.46875 23.953125 10.070312 23.902344 9.601562 C 23.878906 9.398438 23.867188 9.195312 23.902344 8.992188 C 23.957031 8.652344 24.128906 8.375 24.347656 8.121094 C 24.511719 7.9375 24.707031 7.800781 24.945312 7.71875 C 25.472656 7.53125 26.125 7.707031 26.390625 8.25 C 26.519531 8.511719 26.558594 8.78125 26.554688 9.136719 Z M 26.402344 9.695312 C 26.382812 9.625 26.378906 9.539062 26.304688 9.527344 C 26.242188 9.519531 26.230469 9.597656 26.21875 9.652344 C 26.15625 9.898438 26.046875 10.121094 25.871094 10.308594 C 25.839844 10.34375 25.753906 10.359375 25.804688 10.429688 C 25.859375 10.507812 25.929688 10.457031 25.984375 10.421875 C 26.238281 10.246094 26.277344 9.945312 26.402344 9.695312 Z M 24.195312 9.097656 C 24.21875 9.171875 24.210938 9.292969 24.289062 9.300781 C 24.386719 9.308594 24.367188 9.195312 24.382812 9.121094 C 24.425781 8.898438 24.515625 8.691406 24.613281 8.488281 C 24.636719 8.441406 24.707031 8.402344 24.636719 8.347656 C 24.578125 8.304688 24.53125 8.355469 24.496094 8.394531 C 24.332031 8.601562 24.273438 8.851562 24.195312 9.097656 Z M 25.917969 9.925781 C 25.914062 9.882812 25.886719 9.847656 25.847656 9.859375 C 25.738281 9.886719 25.722656 9.996094 25.679688 10.082031 C 25.664062 10.121094 25.695312 10.144531 25.730469 10.132812 C 25.832031 10.105469 25.878906 10.019531 25.917969 9.925781 Z M 25.917969 9.925781 " fill-opacity="1" fill-rule="nonzero"/><path fill="#fde296" d="M 26.847656 21.46875 C 26.886719 21.613281 26.828125 21.683594 26.695312 21.765625 C 26.28125 22.019531 25.824219 22.167969 25.367188 22.285156 C 24.949219 22.390625 24.539062 22.542969 24.101562 22.585938 C 23.863281 22.609375 23.886719 22.582031 23.800781 22.351562 C 23.695312 22.050781 23.703125 21.738281 23.625 21.441406 C 23.566406 21.21875 23.597656 21.179688 23.800781 21.101562 C 24.34375 20.898438 24.90625 20.742188 25.449219 20.539062 C 25.777344 20.414062 26.117188 20.320312 26.445312 20.203125 C 26.570312 20.15625 26.625 20.175781 26.667969 20.320312 C 26.773438 20.691406 26.816406 21.078125 26.847656 21.46875 Z M 24.390625 21.871094 C 24.488281 21.910156 24.554688 21.851562 24.621094 21.816406 C 25.089844 21.582031 25.542969 21.3125 25.996094 21.042969 C 26.039062 21.015625 26.125 21.003906 26.089844 20.933594 C 26.0625 20.890625 25.988281 20.910156 25.933594 20.929688 C 25.902344 20.945312 25.875 20.96875 25.839844 20.988281 C 25.492188 21.171875 25.160156 21.382812 24.808594 21.558594 C 24.660156 21.636719 24.5 21.71875 24.390625 21.871094 Z M 24.152344 21.800781 C 24.164062 21.796875 24.179688 21.796875 24.1875 21.789062 C 24.328125 21.675781 24.464844 21.5625 24.601562 21.445312 C 24.621094 21.425781 24.644531 21.394531 24.617188 21.363281 C 24.59375 21.34375 24.566406 21.332031 24.535156 21.347656 C 24.375 21.425781 24.234375 21.53125 24.113281 21.65625 C 24.058594 21.710938 24.085938 21.765625 24.152344 21.800781 Z M 26.585938 21.390625 C 26.570312 21.320312 26.527344 21.3125 26.46875 21.347656 C 26.332031 21.421875 26.25 21.554688 26.128906 21.644531 C 26.09375 21.671875 26.09375 21.726562 26.164062 21.730469 C 26.25 21.734375 26.578125 21.476562 26.585938 21.390625 Z M 26.585938 21.390625 " fill-opacity="1" fill-rule="nonzero"/></svg>