

<!-- // function KakaoIcon(){
//     return (
//         <svg width="31" height="31" viewBox="0 0 31 31" fill="none" xmlns="http://www.w3.org/2000/svg">
//         <path d="M19.7377 16.9833C19.7336 17.164 19.6581 17.3356 19.5276 17.4606C19.3971 17.5855 19.2224 17.6536 19.0417 17.6498H16.7167C16.5362 17.6532 16.3617 17.585 16.2314 17.4601C16.101 17.3352 16.0253 17.1638 16.0208 16.9833V12.0481C16.0295 11.8573 16.1115 11.6772 16.2496 11.5452C16.3878 11.4133 16.5714 11.3396 16.7625 11.3396C16.9535 11.3396 17.1372 11.4133 17.2753 11.5452C17.4135 11.6772 17.4954 11.8573 17.5042 12.0481V16.3169H19.0541C19.2326 16.3164 19.4042 16.3859 19.532 16.5105C19.6598 16.6352 19.7336 16.8049 19.7377 16.9833ZM15.5419 16.6129C15.7635 17.2996 15.5697 17.5537 15.3698 17.6452C15.224 17.7122 15.0653 17.7466 14.9048 17.746C14.7833 17.7612 14.66 17.7385 14.5518 17.6811C14.4436 17.6237 14.3558 17.5343 14.3003 17.4251L13.95 16.4827H11.7289L11.3677 17.4251C11.3124 17.5344 11.2246 17.624 11.1163 17.6814C11.0081 17.7388 10.8848 17.7614 10.7632 17.746C10.6027 17.7463 10.4441 17.7119 10.2982 17.6452C10.0982 17.5537 9.90605 17.2995 10.1262 16.6144L11.8683 12.0388C11.9317 11.8315 12.0599 11.65 12.2342 11.521C12.4085 11.3921 12.6195 11.3225 12.8363 11.3225C13.0531 11.3225 13.2642 11.3921 13.4384 11.521C13.6127 11.65 13.741 11.8315 13.8043 12.0388L15.5419 16.6129ZM13.5609 15.19L12.8355 13.1285L12.1101 15.19H13.5609ZM11.1104 12.0342C11.11 11.8454 11.0347 11.6644 10.901 11.531C10.7674 11.3977 10.5862 11.3228 10.3974 11.3228H6.6774C6.58397 11.3228 6.49146 11.3412 6.40514 11.3769C6.31882 11.4127 6.24039 11.4651 6.17433 11.5311C6.10826 11.5972 6.05586 11.6756 6.02011 11.7619C5.98435 11.8483 5.96595 11.9408 5.96595 12.0342C5.96595 12.1276 5.98435 12.2201 6.02011 12.3065C6.05586 12.3928 6.10826 12.4712 6.17433 12.5373C6.24039 12.6033 6.31882 12.6557 6.40514 12.6915C6.49146 12.7272 6.58397 12.7456 6.6774 12.7456H7.81045V17.0609C7.81045 17.2536 7.88704 17.4386 8.02337 17.5749C8.1597 17.7112 8.3446 17.7878 8.5374 17.7878C8.7302 17.7878 8.9151 17.7112 9.05143 17.5749C9.18776 17.4386 9.26435 17.2536 9.26435 17.0609V12.7456H10.3974C10.5862 12.7456 10.7674 12.6707 10.901 12.5374C11.0347 12.404 11.11 12.223 11.1104 12.0342ZM22.802 14.1949L24.4574 12.5395C24.5134 12.4809 24.5561 12.411 24.5828 12.3346C24.6096 12.2581 24.6197 12.1769 24.6124 12.0962C24.5983 11.9154 24.5175 11.7464 24.3858 11.6218C24.254 11.4972 24.0807 11.426 23.8995 11.422C23.7499 11.4183 23.605 11.474 23.4965 11.5769L21.469 13.6044V12.0481C21.4604 11.8614 21.3801 11.6851 21.2449 11.5559C21.1097 11.4268 20.9299 11.3548 20.7429 11.3548C20.5559 11.3548 20.3761 11.4268 20.2408 11.5559C20.1056 11.6851 20.0253 11.8614 20.0167 12.0481V17.019C20.0122 17.1172 20.0276 17.2153 20.062 17.3073C20.0965 17.3994 20.1492 17.4835 20.2171 17.5546C20.285 17.6257 20.3666 17.6823 20.4569 17.7209C20.5473 17.7596 20.6446 17.7795 20.7429 17.7795C20.8412 17.7795 20.9384 17.7596 21.0288 17.7209C21.1192 17.6823 21.2008 17.6257 21.2686 17.5546C21.3365 17.4835 21.3893 17.3994 21.4237 17.3073C21.4582 17.2153 21.4736 17.1172 21.469 17.019V15.4333L21.7217 15.1823L23.4267 17.4391C23.5428 17.593 23.7154 17.6945 23.9063 17.7213C24.0973 17.748 24.2911 17.6978 24.445 17.5816C24.599 17.4655 24.7005 17.293 24.7273 17.102C24.754 16.911 24.7038 16.7173 24.5877 16.5633L22.802 14.1949ZM31 1.55V29.45C31 29.8611 30.8367 30.2553 30.546 30.546C30.2553 30.8367 29.8611 31 29.45 31H1.55C1.13891 31 0.744666 30.8367 0.453984 30.546C0.163303 30.2553 0 29.8611 0 29.45V1.55C0 1.13891 0.163303 0.744666 0.453984 0.453984C0.744666 0.163303 1.13891 0 1.55 0H29.45C29.8611 0 30.2553 0.163303 30.546 0.453984C30.8367 0.744666 31 1.13891 31 1.55ZM28.0938 14.2894C28.0938 8.80555 22.4548 4.36015 15.5 4.36015C8.54515 4.36015 2.90625 8.80555 2.90625 14.2894C3.00169 16.1043 3.60581 17.8558 4.64956 19.3435C5.69331 20.8313 7.13459 21.9954 8.80865 22.7028C8.61645 23.3678 7.56865 26.9824 7.52835 27.266C7.52835 27.266 7.50355 27.4799 7.6415 27.5605C7.68764 27.5842 7.73817 27.598 7.78991 27.6012C7.84165 27.6044 7.8935 27.5969 7.9422 27.5791C8.33745 27.5233 12.5364 24.5752 13.2633 24.0622C14.0043 24.1668 14.7517 24.2186 15.5 24.2172C22.4548 24.2188 28.0938 19.7733 28.0938 14.2894Z" fill="#FFE600"/>
//         </svg>
//     )
   
// }


// export default KakaoIcon; -->

<svg width="31" height="31" viewBox="0 0 31 31" fill="none" xmlns="http://www.w3.org/2000/svg">
        <path d="M19.7377 16.9833C19.7336 17.164 19.6581 17.3356 19.5276 17.4606C19.3971 17.5855 19.2224 17.6536 19.0417 17.6498H16.7167C16.5362 17.6532 16.3617 17.585 16.2314 17.4601C16.101 17.3352 16.0253 17.1638 16.0208 16.9833V12.0481C16.0295 11.8573 16.1115 11.6772 16.2496 11.5452C16.3878 11.4133 16.5714 11.3396 16.7625 11.3396C16.9535 11.3396 17.1372 11.4133 17.2753 11.5452C17.4135 11.6772 17.4954 11.8573 17.5042 12.0481V16.3169H19.0541C19.2326 16.3164 19.4042 16.3859 19.532 16.5105C19.6598 16.6352 19.7336 16.8049 19.7377 16.9833ZM15.5419 16.6129C15.7635 17.2996 15.5697 17.5537 15.3698 17.6452C15.224 17.7122 15.0653 17.7466 14.9048 17.746C14.7833 17.7612 14.66 17.7385 14.5518 17.6811C14.4436 17.6237 14.3558 17.5343 14.3003 17.4251L13.95 16.4827H11.7289L11.3677 17.4251C11.3124 17.5344 11.2246 17.624 11.1163 17.6814C11.0081 17.7388 10.8848 17.7614 10.7632 17.746C10.6027 17.7463 10.4441 17.7119 10.2982 17.6452C10.0982 17.5537 9.90605 17.2995 10.1262 16.6144L11.8683 12.0388C11.9317 11.8315 12.0599 11.65 12.2342 11.521C12.4085 11.3921 12.6195 11.3225 12.8363 11.3225C13.0531 11.3225 13.2642 11.3921 13.4384 11.521C13.6127 11.65 13.741 11.8315 13.8043 12.0388L15.5419 16.6129ZM13.5609 15.19L12.8355 13.1285L12.1101 15.19H13.5609ZM11.1104 12.0342C11.11 11.8454 11.0347 11.6644 10.901 11.531C10.7674 11.3977 10.5862 11.3228 10.3974 11.3228H6.6774C6.58397 11.3228 6.49146 11.3412 6.40514 11.3769C6.31882 11.4127 6.24039 11.4651 6.17433 11.5311C6.10826 11.5972 6.05586 11.6756 6.02011 11.7619C5.98435 11.8483 5.96595 11.9408 5.96595 12.0342C5.96595 12.1276 5.98435 12.2201 6.02011 12.3065C6.05586 12.3928 6.10826 12.4712 6.17433 12.5373C6.24039 12.6033 6.31882 12.6557 6.40514 12.6915C6.49146 12.7272 6.58397 12.7456 6.6774 12.7456H7.81045V17.0609C7.81045 17.2536 7.88704 17.4386 8.02337 17.5749C8.1597 17.7112 8.3446 17.7878 8.5374 17.7878C8.7302 17.7878 8.9151 17.7112 9.05143 17.5749C9.18776 17.4386 9.26435 17.2536 9.26435 17.0609V12.7456H10.3974C10.5862 12.7456 10.7674 12.6707 10.901 12.5374C11.0347 12.404 11.11 12.223 11.1104 12.0342ZM22.802 14.1949L24.4574 12.5395C24.5134 12.4809 24.5561 12.411 24.5828 12.3346C24.6096 12.2581 24.6197 12.1769 24.6124 12.0962C24.5983 11.9154 24.5175 11.7464 24.3858 11.6218C24.254 11.4972 24.0807 11.426 23.8995 11.422C23.7499 11.4183 23.605 11.474 23.4965 11.5769L21.469 13.6044V12.0481C21.4604 11.8614 21.3801 11.6851 21.2449 11.5559C21.1097 11.4268 20.9299 11.3548 20.7429 11.3548C20.5559 11.3548 20.3761 11.4268 20.2408 11.5559C20.1056 11.6851 20.0253 11.8614 20.0167 12.0481V17.019C20.0122 17.1172 20.0276 17.2153 20.062 17.3073C20.0965 17.3994 20.1492 17.4835 20.2171 17.5546C20.285 17.6257 20.3666 17.6823 20.4569 17.7209C20.5473 17.7596 20.6446 17.7795 20.7429 17.7795C20.8412 17.7795 20.9384 17.7596 21.0288 17.7209C21.1192 17.6823 21.2008 17.6257 21.2686 17.5546C21.3365 17.4835 21.3893 17.3994 21.4237 17.3073C21.4582 17.2153 21.4736 17.1172 21.469 17.019V15.4333L21.7217 15.1823L23.4267 17.4391C23.5428 17.593 23.7154 17.6945 23.9063 17.7213C24.0973 17.748 24.2911 17.6978 24.445 17.5816C24.599 17.4655 24.7005 17.293 24.7273 17.102C24.754 16.911 24.7038 16.7173 24.5877 16.5633L22.802 14.1949ZM31 1.55V29.45C31 29.8611 30.8367 30.2553 30.546 30.546C30.2553 30.8367 29.8611 31 29.45 31H1.55C1.13891 31 0.744666 30.8367 0.453984 30.546C0.163303 30.2553 0 29.8611 0 29.45V1.55C0 1.13891 0.163303 0.744666 0.453984 0.453984C0.744666 0.163303 1.13891 0 1.55 0H29.45C29.8611 0 30.2553 0.163303 30.546 0.453984C30.8367 0.744666 31 1.13891 31 1.55ZM28.0938 14.2894C28.0938 8.80555 22.4548 4.36015 15.5 4.36015C8.54515 4.36015 2.90625 8.80555 2.90625 14.2894C3.00169 16.1043 3.60581 17.8558 4.64956 19.3435C5.69331 20.8313 7.13459 21.9954 8.80865 22.7028C8.61645 23.3678 7.56865 26.9824 7.52835 27.266C7.52835 27.266 7.50355 27.4799 7.6415 27.5605C7.68764 27.5842 7.73817 27.598 7.78991 27.6012C7.84165 27.6044 7.8935 27.5969 7.9422 27.5791C8.33745 27.5233 12.5364 24.5752 13.2633 24.0622C14.0043 24.1668 14.7517 24.2186 15.5 24.2172C22.4548 24.2188 28.0938 19.7733 28.0938 14.2894Z" fill="#FFE600"/>
        </svg>