<svg xmlns="http://www.w3.org/2000/svg" xmlns:xlink="http://www.w3.org/1999/xlink" width="40" zoomAndPan="magnify" viewBox="0 0 30 30.000001" height="40" preserveAspectRatio="xMidYMid meet" version="1.0"><path fill="#000000" d="M 14.742188 0.390625 C 13.535156 0.386719 12.351562 0.542969 11.1875 0.855469 C 10.027344 1.167969 8.925781 1.628906 7.882812 2.234375 C 6.84375 2.84375 5.898438 3.574219 5.050781 4.429688 C 4.207031 5.289062 3.484375 6.242188 2.894531 7.289062 C 2.300781 8.335938 1.855469 9.445312 1.554688 10.613281 C 1.257812 11.78125 1.117188 12.964844 1.132812 14.167969 C 1.148438 15.375 1.324219 16.554688 1.65625 17.714844 C 1.984375 18.871094 2.460938 19.964844 3.082031 21 L 1.164062 26.753906 C 1.132812 26.851562 1.125 26.953125 1.140625 27.054688 C 1.15625 27.160156 1.191406 27.253906 1.253906 27.335938 C 1.316406 27.421875 1.390625 27.488281 1.484375 27.535156 C 1.578125 27.582031 1.675781 27.605469 1.78125 27.605469 C 1.851562 27.605469 1.917969 27.59375 1.984375 27.574219 L 7.738281 25.65625 C 8.1875 25.925781 8.648438 26.167969 9.125 26.382812 C 9.601562 26.597656 10.089844 26.785156 10.585938 26.945312 C 11.082031 27.105469 11.589844 27.234375 12.101562 27.335938 C 12.613281 27.4375 13.128906 27.511719 13.652344 27.554688 C 14.171875 27.59375 14.691406 27.605469 15.214844 27.589844 C 15.738281 27.570312 16.257812 27.523438 16.773438 27.445312 C 17.289062 27.367188 17.800781 27.261719 18.304688 27.125 C 18.808594 26.988281 19.304688 26.820312 19.789062 26.628906 C 20.273438 26.433594 20.746094 26.214844 21.207031 25.964844 C 21.667969 25.71875 22.109375 25.441406 22.539062 25.144531 C 22.964844 24.84375 23.375 24.523438 23.765625 24.175781 C 24.160156 23.828125 24.527344 23.460938 24.878906 23.070312 C 25.226562 22.683594 25.550781 22.273438 25.851562 21.847656 C 26.152344 21.421875 26.429688 20.980469 26.679688 20.519531 C 26.933594 20.0625 27.15625 19.589844 27.351562 19.105469 C 27.546875 18.621094 27.714844 18.128906 27.855469 17.625 C 27.996094 17.121094 28.105469 16.613281 28.1875 16.097656 C 28.265625 15.578125 28.316406 15.0625 28.339844 14.539062 C 28.359375 14.015625 28.351562 13.496094 28.3125 12.972656 C 28.273438 12.453125 28.203125 11.9375 28.105469 11.421875 C 28.007812 10.910156 27.878906 10.402344 27.722656 9.90625 C 27.5625 9.40625 27.378906 8.917969 27.164062 8.441406 C 26.953125 7.964844 26.714844 7.503906 26.445312 7.054688 C 26.179688 6.605469 25.886719 6.171875 25.570312 5.753906 C 25.253906 5.339844 24.917969 4.941406 24.554688 4.566406 C 24.191406 4.191406 23.808594 3.835938 23.40625 3.503906 C 23.003906 3.167969 22.582031 2.863281 22.144531 2.578125 C 21.707031 2.292969 21.253906 2.035156 20.785156 1.804688 C 20.316406 1.570312 19.835938 1.367188 19.34375 1.191406 C 18.855469 1.011719 18.351562 0.867188 17.84375 0.746094 C 17.335938 0.628906 16.820312 0.539062 16.304688 0.476562 C 15.785156 0.417969 15.261719 0.386719 14.742188 0.390625 Z M 14.742188 26.308594 C 12.363281 26.308594 10.175781 25.671875 8.167969 24.398438 C 8.0625 24.328125 7.949219 24.296875 7.824219 24.296875 C 7.753906 24.296875 7.683594 24.308594 7.617188 24.328125 L 2.804688 25.933594 L 4.410156 21.121094 C 4.472656 20.925781 4.449219 20.742188 4.339844 20.570312 C 4.101562 20.1875 3.882812 19.792969 3.683594 19.386719 C 3.488281 18.980469 3.3125 18.566406 3.160156 18.140625 C 3.007812 17.71875 2.882812 17.285156 2.777344 16.847656 C 2.671875 16.40625 2.59375 15.964844 2.539062 15.515625 C 2.484375 15.066406 2.453125 14.617188 2.445312 14.167969 C 2.441406 13.714844 2.460938 13.265625 2.503906 12.816406 C 2.546875 12.367188 2.613281 11.921875 2.707031 11.480469 C 2.800781 11.039062 2.917969 10.601562 3.058594 10.175781 C 3.199219 9.746094 3.359375 9.324219 3.546875 8.914062 C 3.734375 8.503906 3.941406 8.105469 4.175781 7.71875 C 4.40625 7.328125 4.65625 6.957031 4.925781 6.59375 C 5.199219 6.234375 5.488281 5.890625 5.800781 5.5625 C 6.109375 5.234375 6.4375 4.925781 6.78125 4.632812 C 7.125 4.339844 7.484375 4.066406 7.855469 3.8125 C 8.230469 3.5625 8.617188 3.328125 9.015625 3.121094 C 9.414062 2.910156 9.824219 2.722656 10.246094 2.554688 C 10.664062 2.390625 11.09375 2.25 11.527344 2.132812 C 11.964844 2.011719 12.402344 1.917969 12.851562 1.851562 C 13.296875 1.78125 13.742188 1.734375 14.195312 1.714844 C 14.644531 1.695312 15.097656 1.699219 15.546875 1.726562 C 15.996094 1.757812 16.445312 1.8125 16.886719 1.890625 C 17.332031 1.96875 17.769531 2.070312 18.203125 2.195312 C 18.636719 2.324219 19.0625 2.472656 19.480469 2.648438 C 19.894531 2.820312 20.300781 3.015625 20.695312 3.234375 C 21.089844 3.453125 21.472656 3.691406 21.84375 3.953125 C 22.210938 4.210938 22.5625 4.492188 22.902344 4.789062 C 23.238281 5.089844 23.558594 5.40625 23.863281 5.742188 C 24.167969 6.074219 24.449219 6.425781 24.714844 6.789062 C 24.980469 7.15625 25.222656 7.535156 25.445312 7.925781 C 25.667969 8.320312 25.871094 8.722656 26.050781 9.136719 C 26.226562 9.550781 26.382812 9.972656 26.515625 10.40625 C 26.648438 10.835938 26.753906 11.273438 26.839844 11.71875 C 26.921875 12.160156 26.980469 12.609375 27.015625 13.058594 C 27.050781 13.507812 27.0625 13.957031 27.046875 14.410156 C 27.03125 14.859375 26.992188 15.308594 26.929688 15.753906 C 26.863281 16.203125 26.777344 16.644531 26.664062 17.082031 C 26.550781 17.519531 26.414062 17.949219 26.253906 18.371094 C 26.09375 18.792969 25.910156 19.203125 25.707031 19.605469 C 25.5 20.007812 25.273438 20.394531 25.027344 20.773438 C 24.777344 21.148438 24.507812 21.511719 24.222656 21.859375 C 23.933594 22.207031 23.628906 22.539062 23.304688 22.851562 C 22.980469 23.164062 22.636719 23.460938 22.28125 23.734375 C 21.925781 24.011719 21.554688 24.269531 21.167969 24.503906 C 20.785156 24.738281 20.386719 24.953125 19.976562 25.144531 C 19.570312 25.335938 19.152344 25.503906 18.726562 25.652344 C 18.296875 25.796875 17.863281 25.917969 17.425781 26.015625 C 16.984375 26.113281 16.539062 26.1875 16.089844 26.238281 C 15.640625 26.285156 15.191406 26.3125 14.742188 26.308594 Z M 9.554688 13.996094 C 9.554688 14.167969 9.523438 14.335938 9.457031 14.492188 C 9.390625 14.652344 9.296875 14.792969 9.175781 14.914062 C 9.054688 15.035156 8.914062 15.128906 8.757812 15.195312 C 8.597656 15.261719 8.433594 15.292969 8.261719 15.292969 C 8.089844 15.292969 7.921875 15.261719 7.765625 15.195312 C 7.605469 15.128906 7.464844 15.035156 7.34375 14.914062 C 7.222656 14.792969 7.128906 14.652344 7.0625 14.492188 C 6.996094 14.335938 6.964844 14.167969 6.964844 13.996094 C 6.964844 13.824219 6.996094 13.660156 7.0625 13.5 C 7.128906 13.34375 7.222656 13.203125 7.34375 13.082031 C 7.464844 12.960938 7.605469 12.867188 7.765625 12.800781 C 7.921875 12.734375 8.089844 12.703125 8.261719 12.703125 C 8.433594 12.703125 8.597656 12.734375 8.757812 12.800781 C 8.914062 12.867188 9.054688 12.960938 9.175781 13.082031 C 9.296875 13.203125 9.390625 13.34375 9.457031 13.5 C 9.523438 13.660156 9.554688 13.824219 9.554688 13.996094 Z M 16.035156 13.996094 C 16.035156 14.167969 16.003906 14.335938 15.9375 14.492188 C 15.871094 14.652344 15.777344 14.792969 15.65625 14.914062 C 15.535156 15.035156 15.394531 15.128906 15.238281 15.195312 C 15.078125 15.261719 14.914062 15.292969 14.742188 15.292969 C 14.570312 15.292969 14.402344 15.261719 14.246094 15.195312 C 14.085938 15.128906 13.945312 15.035156 13.824219 14.914062 C 13.703125 14.792969 13.609375 14.652344 13.542969 14.492188 C 13.476562 14.335938 13.445312 14.167969 13.445312 13.996094 C 13.445312 13.824219 13.476562 13.660156 13.542969 13.5 C 13.609375 13.34375 13.703125 13.203125 13.824219 13.082031 C 13.945312 12.960938 14.085938 12.867188 14.246094 12.800781 C 14.402344 12.734375 14.570312 12.703125 14.742188 12.703125 C 14.914062 12.703125 15.078125 12.734375 15.238281 12.800781 C 15.394531 12.867188 15.535156 12.960938 15.65625 13.082031 C 15.777344 13.203125 15.871094 13.34375 15.9375 13.5 C 16.003906 13.660156 16.035156 13.824219 16.035156 13.996094 Z M 22.515625 13.996094 C 22.515625 14.167969 22.484375 14.335938 22.417969 14.492188 C 22.351562 14.652344 22.257812 14.792969 22.136719 14.914062 C 22.015625 15.035156 21.875 15.128906 21.71875 15.195312 C 21.558594 15.261719 21.394531 15.292969 21.222656 15.292969 C 21.050781 15.292969 20.882812 15.261719 20.726562 15.195312 C 20.566406 15.128906 20.425781 15.035156 20.304688 14.914062 C 20.183594 14.792969 20.089844 14.652344 20.023438 14.492188 C 19.957031 14.335938 19.925781 14.167969 19.925781 13.996094 C 19.925781 13.824219 19.957031 13.660156 20.023438 13.5 C 20.089844 13.34375 20.183594 13.203125 20.304688 13.082031 C 20.425781 12.960938 20.566406 12.867188 20.726562 12.800781 C 20.882812 12.734375 21.050781 12.703125 21.222656 12.703125 C 21.394531 12.703125 21.558594 12.734375 21.71875 12.800781 C 21.875 12.867188 22.015625 12.960938 22.136719 13.082031 C 22.257812 13.203125 22.351562 13.34375 22.417969 13.5 C 22.484375 13.660156 22.515625 13.824219 22.515625 13.996094 Z M 22.515625 13.996094 " fill-opacity="1" fill-rule="nonzero"/></svg>