<svg xmlns="http://www.w3.org/2000/svg" xmlns:xlink="http://www.w3.org/1999/xlink" width="40" zoomAndPan="magnify" viewBox="0 0 30 30.000001" height="40" preserveAspectRatio="xMidYMid meet" version="1.0"><defs><clipPath id="312ecab936"><path d="M 4 12 L 26 12 L 26 28.136719 L 4 28.136719 Z M 4 12 " clip-rule="nonzero"/></clipPath><clipPath id="e8f6073b73"><path d="M 0.484375 0.554688 L 29.515625 0.554688 L 29.515625 14 L 0.484375 14 Z M 0.484375 0.554688 " clip-rule="nonzero"/></clipPath></defs><g clip-path="url(#312ecab936)"><path fill="#231f20" d="M 24.390625 26.140625 C 24.390625 26.507812 24.085938 26.800781 23.722656 26.800781 L 19.03125 26.800781 C 18.65625 26.800781 18.363281 26.5 18.363281 26.140625 L 18.363281 19.269531 C 18.363281 18.171875 17.460938 17.285156 16.351562 17.285156 L 13.671875 17.285156 C 12.5625 17.285156 11.660156 18.171875 11.660156 19.269531 L 11.660156 26.140625 C 11.660156 26.507812 11.359375 26.800781 10.992188 26.800781 L 6.285156 26.800781 C 5.914062 26.800781 5.617188 26.5 5.617188 26.140625 L 5.617188 12.894531 L 4.277344 12.894531 L 4.277344 26.140625 C 4.277344 27.234375 5.175781 28.125 6.285156 28.125 L 10.976562 28.125 C 12.085938 28.125 12.984375 27.234375 12.984375 26.140625 L 12.984375 19.269531 C 12.984375 18.902344 13.285156 18.609375 13.652344 18.609375 L 16.335938 18.609375 C 16.707031 18.609375 17.003906 18.90625 17.003906 19.269531 L 17.003906 26.140625 C 17.003906 27.234375 17.902344 28.125 19.011719 28.125 L 23.703125 28.125 C 24.8125 28.125 25.714844 27.234375 25.714844 26.140625 L 25.714844 12.894531 L 24.371094 12.894531 Z M 24.390625 26.140625 " fill-opacity="1" fill-rule="nonzero"/></g><g clip-path="url(#e8f6073b73)"><path fill="#231f20" d="M 16.304688 1.207031 C 15.546875 0.566406 14.449219 0.566406 13.6875 1.207031 L 0.484375 12.390625 L 1.355469 13.394531 L 14.566406 2.210938 C 14.820312 2 15.1875 2 15.433594 2.210938 L 28.644531 13.394531 L 29.515625 12.390625 Z M 16.304688 1.207031 " fill-opacity="1" fill-rule="nonzero"/></g></svg>