<svg xmlns="http://www.w3.org/2000/svg" xmlns:xlink="http://www.w3.org/1999/xlink" width="40" zoomAndPan="magnify" viewBox="0 0 30 30.000001" height="40" preserveAspectRatio="xMidYMid meet" version="1.0"><defs><clipPath id="ec3bbdba73"><path d="M 0.484375 0 L 29.515625 0 L 29.515625 29.03125 L 0.484375 29.03125 Z M 0.484375 0 " clip-rule="nonzero"/></clipPath></defs><g clip-path="url(#ec3bbdba73)"><path fill="#000000" d="M 25.265625 4.25 C 22.523438 1.511719 18.878906 0 15 0 C 11.121094 0 7.476562 1.511719 4.734375 4.25 C 1.992188 6.992188 0.484375 10.636719 0.484375 14.515625 C 0.484375 18.394531 1.992188 22.039062 4.734375 24.78125 C 7.476562 27.523438 11.121094 29.03125 15 29.03125 C 18.878906 29.03125 22.523438 27.523438 25.265625 24.78125 C 28.003906 22.039062 29.515625 18.394531 29.515625 14.515625 C 29.515625 10.636719 28.003906 6.992188 25.265625 4.25 Z M 5.394531 4.910156 C 7.960938 2.34375 11.371094 0.929688 15 0.929688 C 18.628906 0.929688 22.039062 2.34375 24.605469 4.910156 C 27.171875 7.476562 28.585938 10.886719 28.585938 14.515625 C 28.585938 17.53125 27.605469 20.398438 25.804688 22.753906 C 24.367188 20.746094 22.078125 19.5625 19.585938 19.5625 L 10.410156 19.5625 C 7.921875 19.5625 5.632812 20.746094 4.195312 22.753906 C 2.394531 20.398438 1.414062 17.53125 1.414062 14.515625 C 1.414062 10.886719 2.828125 7.476562 5.394531 4.910156 Z M 15 18.796875 C 18.730469 18.796875 21.761719 15.761719 21.761719 12.03125 C 21.761719 8.300781 18.730469 5.269531 15 5.269531 C 11.269531 5.269531 8.234375 8.300781 8.234375 12.03125 C 8.234375 15.761719 11.269531 18.796875 15 18.796875 Z M 15 18.796875 " fill-opacity="1" fill-rule="nonzero"/></g></svg>