<svg xmlns="http://www.w3.org/2000/svg" xmlns:xlink="http://www.w3.org/1999/xlink" width="40" zoomAndPan="magnify" viewBox="0 0 30 30.000001" height="40" preserveAspectRatio="xMidYMid meet" version="1.0"><defs><clipPath id="93dec7a62d"><path d="M 4.113281 0 L 25.886719 0 L 25.886719 29.03125 L 4.113281 29.03125 Z M 4.113281 0 " clip-rule="nonzero"/></clipPath></defs><g clip-path="url(#93dec7a62d)"><path fill="#000000" d="M 24.332031 0 L 5.667969 0 C 4.8125 0 4.113281 0.699219 4.113281 1.554688 L 4.113281 27.476562 C 4.113281 28.335938 4.8125 29.03125 5.667969 29.03125 L 24.332031 29.03125 C 25.1875 29.03125 25.886719 28.335938 25.886719 27.476562 L 25.886719 1.554688 C 25.886719 0.699219 25.1875 0 24.332031 0 Z M 24.851562 27.476562 C 24.851562 27.761719 24.617188 27.996094 24.332031 27.996094 L 5.667969 27.996094 C 5.382812 27.996094 5.148438 27.761719 5.148438 27.476562 L 5.148438 1.554688 C 5.148438 1.269531 5.382812 1.035156 5.667969 1.035156 L 24.332031 1.035156 C 24.617188 1.035156 24.851562 1.269531 24.851562 1.554688 Z M 19.90625 11.925781 L 19.90625 9.828125 C 20.722656 9.179688 21.222656 8.128906 21.222656 7.011719 C 21.222656 5.101562 19.808594 3.546875 18.070312 3.546875 C 17.914062 3.546875 17.757812 3.5625 17.601562 3.585938 C 17.019531 2.644531 16.054688 2.074219 15 2.074219 C 13.945312 2.074219 12.980469 2.644531 12.398438 3.585938 C 12.242188 3.558594 12.085938 3.546875 11.929688 3.546875 C 10.191406 3.546875 8.777344 5.101562 8.777344 7.011719 C 8.777344 8.128906 9.277344 9.179688 10.09375 9.828125 L 10.09375 11.925781 C 10.09375 12.210938 10.328125 12.441406 10.613281 12.441406 L 19.386719 12.441406 C 19.671875 12.441406 19.90625 12.210938 19.90625 11.925781 Z M 18.867188 9.5625 L 18.867188 11.40625 L 11.132812 11.40625 L 11.132812 9.5625 C 11.132812 9.386719 11.042969 9.222656 10.894531 9.128906 C 10.230469 8.695312 9.816406 7.886719 9.816406 7.011719 C 9.816406 5.671875 10.765625 4.585938 11.929688 4.585938 C 12.121094 4.585938 12.3125 4.617188 12.503906 4.679688 C 12.75 4.761719 13.023438 4.640625 13.132812 4.402344 C 13.503906 3.605469 14.21875 3.109375 15 3.109375 C 15.78125 3.109375 16.496094 3.605469 16.867188 4.402344 C 16.976562 4.640625 17.25 4.757812 17.496094 4.679688 C 17.6875 4.617188 17.878906 4.585938 18.070312 4.585938 C 19.234375 4.585938 20.183594 5.671875 20.183594 7.011719 C 20.183594 7.886719 19.769531 8.695312 19.105469 9.128906 C 18.957031 9.222656 18.867188 9.386719 18.867188 9.5625 Z M 8.261719 13.996094 C 7.402344 13.996094 6.703125 14.695312 6.703125 15.554688 C 6.703125 16.410156 7.402344 17.109375 8.261719 17.109375 C 9.117188 17.109375 9.816406 16.410156 9.816406 15.554688 C 9.816406 14.695312 9.117188 13.996094 8.261719 13.996094 Z M 8.261719 16.070312 C 7.972656 16.070312 7.742188 15.839844 7.742188 15.554688 C 7.742188 15.265625 7.972656 15.035156 8.261719 15.035156 C 8.546875 15.035156 8.777344 15.265625 8.777344 15.554688 C 8.777344 15.839844 8.546875 16.070312 8.261719 16.070312 Z M 8.261719 18.664062 C 7.402344 18.664062 6.703125 19.363281 6.703125 20.21875 C 6.703125 21.078125 7.402344 21.773438 8.261719 21.773438 C 9.117188 21.773438 9.816406 21.078125 9.816406 20.21875 C 9.816406 19.363281 9.117188 18.664062 8.261719 18.664062 Z M 8.261719 20.738281 C 7.972656 20.738281 7.742188 20.503906 7.742188 20.21875 C 7.742188 19.933594 7.972656 19.699219 8.261719 19.699219 C 8.546875 19.699219 8.777344 19.933594 8.777344 20.21875 C 8.777344 20.503906 8.546875 20.738281 8.261719 20.738281 Z M 8.261719 23.328125 C 7.402344 23.328125 6.703125 24.027344 6.703125 24.886719 C 6.703125 25.742188 7.402344 26.441406 8.261719 26.441406 C 9.117188 26.441406 9.816406 25.742188 9.816406 24.886719 C 9.816406 24.027344 9.117188 23.328125 8.261719 23.328125 Z M 8.261719 25.402344 C 7.972656 25.402344 7.742188 25.171875 7.742188 24.886719 C 7.742188 24.597656 7.972656 24.367188 8.261719 24.367188 C 8.546875 24.367188 8.777344 24.597656 8.777344 24.886719 C 8.777344 25.171875 8.546875 25.402344 8.261719 25.402344 Z M 23.296875 15.554688 C 23.296875 15.839844 23.0625 16.070312 22.777344 16.070312 L 11.890625 16.070312 C 11.601562 16.070312 11.371094 15.839844 11.371094 15.554688 C 11.371094 15.265625 11.601562 15.035156 11.890625 15.035156 L 22.777344 15.035156 C 23.0625 15.035156 23.296875 15.265625 23.296875 15.554688 Z M 23.296875 20.21875 C 23.296875 20.503906 23.0625 20.738281 22.777344 20.738281 L 11.890625 20.738281 C 11.601562 20.738281 11.371094 20.503906 11.371094 20.21875 C 11.371094 19.933594 11.601562 19.699219 11.890625 19.699219 L 22.777344 19.699219 C 23.0625 19.699219 23.296875 19.933594 23.296875 20.21875 Z M 23.296875 24.886719 C 23.296875 25.171875 23.0625 25.402344 22.777344 25.402344 L 11.890625 25.402344 C 11.601562 25.402344 11.371094 25.171875 11.371094 24.886719 C 11.371094 24.597656 11.601562 24.367188 11.890625 24.367188 L 22.777344 24.367188 C 23.0625 24.367188 23.296875 24.597656 23.296875 24.886719 Z M 23.296875 24.886719 " fill-opacity="1" fill-rule="nonzero"/></g></svg>