<svg xmlns="http://www.w3.org/2000/svg" xmlns:xlink="http://www.w3.org/1999/xlink" width="40" zoomAndPan="magnify" viewBox="0 0 30 30.000001" height="40" preserveAspectRatio="xMidYMid meet" version="1.0"><defs><clipPath id="22730cfe6b"><path d="M 18 17 L 29.515625 17 L 29.515625 29.03125 L 18 29.03125 Z M 18 17 " clip-rule="nonzero"/></clipPath></defs><path fill="#000000" d="M 12.472656 23.183594 C 12.019531 23.183594 11.566406 23.15625 11.117188 23.101562 C 10.667969 23.046875 10.222656 22.960938 9.78125 22.851562 C 9.339844 22.742188 8.910156 22.605469 8.484375 22.441406 C 8.0625 22.277344 7.652344 22.089844 7.25 21.875 C 6.851562 21.664062 6.464844 21.425781 6.09375 21.164062 C 5.722656 20.902344 5.367188 20.621094 5.03125 20.316406 C 4.695312 20.011719 4.378906 19.6875 4.082031 19.34375 C 3.785156 19 3.511719 18.640625 3.257812 18.261719 C 3.007812 17.882812 2.777344 17.492188 2.574219 17.085938 C 2.371094 16.683594 2.191406 16.265625 2.039062 15.839844 C 1.886719 15.410156 1.761719 14.976562 1.660156 14.535156 C 1.5625 14.089844 1.488281 13.644531 1.445312 13.191406 C 1.402344 12.742188 1.382812 12.289062 1.394531 11.832031 C 1.40625 11.378906 1.445312 10.929688 1.511719 10.480469 C 1.578125 10.03125 1.671875 9.589844 1.792969 9.152344 C 1.914062 8.714844 2.0625 8.285156 2.234375 7.867188 C 2.410156 7.445312 2.609375 7.039062 2.832031 6.644531 C 3.054688 6.25 3.300781 5.871094 3.574219 5.503906 C 3.84375 5.140625 4.136719 4.792969 4.449219 4.464844 C 4.761719 4.136719 5.09375 3.828125 5.445312 3.542969 C 5.792969 3.253906 6.160156 2.988281 6.546875 2.746094 C 6.929688 2.503906 7.324219 2.285156 7.734375 2.089844 C 8.148438 1.898438 8.566406 1.730469 9 1.585938 C 9.429688 1.445312 9.867188 1.328125 10.3125 1.242188 C 10.757812 1.152344 11.207031 1.089844 11.660156 1.058594 C 12.113281 1.023438 12.566406 1.019531 13.019531 1.042969 C 13.472656 1.066406 13.921875 1.113281 14.367188 1.191406 C 14.816406 1.269531 15.257812 1.375 15.691406 1.507812 C 16.125 1.640625 16.550781 1.796875 16.964844 1.980469 C 17.378906 2.164062 17.78125 2.375 18.167969 2.609375 C 18.558594 2.84375 18.933594 3.097656 19.289062 3.378906 C 19.648438 3.65625 19.988281 3.957031 20.308594 4.277344 C 21.082031 5.054688 21.726562 5.921875 22.246094 6.890625 C 22.761719 7.855469 23.128906 8.875 23.339844 9.949219 C 23.554688 11.023438 23.609375 12.105469 23.5 13.195312 C 23.394531 14.285156 23.128906 15.339844 22.710938 16.351562 C 22.292969 17.363281 21.734375 18.292969 21.039062 19.136719 C 20.34375 19.984375 19.542969 20.710938 18.628906 21.320312 C 17.71875 21.929688 16.738281 22.390625 15.691406 22.707031 C 14.640625 23.027344 13.570312 23.183594 12.472656 23.183594 Z M 12.472656 3.46875 C 12.144531 3.46875 11.8125 3.488281 11.484375 3.523438 C 11.15625 3.5625 10.832031 3.617188 10.511719 3.691406 C 10.1875 3.765625 9.871094 3.859375 9.558594 3.96875 C 9.25 4.078125 8.945312 4.207031 8.648438 4.351562 C 8.351562 4.5 8.0625 4.660156 7.785156 4.839844 C 7.507812 5.019531 7.238281 5.210938 6.984375 5.421875 C 6.726562 5.628906 6.484375 5.851562 6.253906 6.089844 C 6.023438 6.328125 5.808594 6.578125 5.605469 6.839844 C 5.40625 7.101562 5.21875 7.375 5.050781 7.65625 C 4.878906 7.941406 4.726562 8.230469 4.589844 8.53125 C 4.453125 8.832031 4.332031 9.140625 4.230469 9.457031 C 4.128906 9.769531 4.046875 10.089844 3.980469 10.414062 C 3.914062 10.738281 3.871094 11.0625 3.84375 11.394531 C 3.8125 11.722656 3.804688 12.054688 3.816406 12.382812 C 3.828125 12.714844 3.855469 13.042969 3.902344 13.371094 C 3.953125 13.695312 4.019531 14.019531 4.105469 14.339844 C 4.1875 14.660156 4.292969 14.972656 4.414062 15.277344 C 4.535156 15.585938 4.671875 15.886719 4.828125 16.179688 C 4.984375 16.46875 5.15625 16.75 5.34375 17.023438 C 5.53125 17.296875 5.734375 17.554688 5.953125 17.804688 C 6.167969 18.054688 6.398438 18.289062 6.644531 18.511719 C 6.890625 18.734375 7.144531 18.941406 7.414062 19.132812 C 7.683594 19.324219 7.960938 19.503906 8.25 19.664062 C 8.539062 19.824219 8.835938 19.96875 9.140625 20.09375 C 9.445312 20.222656 9.757812 20.332031 10.078125 20.421875 C 10.394531 20.511719 10.714844 20.585938 11.042969 20.636719 C 11.367188 20.691406 11.695312 20.726562 12.027344 20.742188 C 12.355469 20.761719 12.6875 20.757812 13.015625 20.738281 C 13.347656 20.714844 13.671875 20.675781 14 20.617188 C 14.324219 20.554688 14.644531 20.480469 14.960938 20.382812 C 15.277344 20.289062 15.585938 20.171875 15.890625 20.042969 C 16.195312 19.910156 16.488281 19.761719 16.773438 19.597656 C 17.0625 19.433594 17.335938 19.25 17.601562 19.054688 C 17.867188 18.855469 18.121094 18.644531 18.363281 18.421875 C 18.605469 18.195312 18.832031 17.957031 19.046875 17.703125 C 19.257812 17.449219 19.457031 17.1875 19.640625 16.914062 C 19.824219 16.636719 19.992188 16.351562 20.144531 16.058594 C 20.292969 15.765625 20.429688 15.464844 20.542969 15.15625 C 20.660156 14.84375 20.757812 14.53125 20.839844 14.210938 C 20.917969 13.890625 20.980469 13.566406 21.023438 13.238281 C 21.066406 12.910156 21.089844 12.578125 21.097656 12.25 C 21.101562 11.917969 21.089844 11.589844 21.054688 11.261719 C 21.023438 10.929688 20.972656 10.605469 20.902344 10.28125 C 20.832031 9.960938 20.742188 9.640625 20.636719 9.328125 C 20.53125 9.015625 20.40625 8.710938 20.265625 8.410156 C 20.125 8.113281 19.964844 7.824219 19.789062 7.542969 C 19.617188 7.261719 19.425781 6.992188 19.21875 6.734375 C 19.015625 6.476562 18.792969 6.230469 18.5625 5.996094 C 17.753906 5.1875 16.824219 4.566406 15.769531 4.128906 C 14.714844 3.691406 13.617188 3.46875 12.472656 3.46875 Z M 12.472656 3.46875 " fill-opacity="1" fill-rule="nonzero"/><g clip-path="url(#22730cfe6b)"><path fill="#000000" d="M 28.175781 29.03125 C 27.839844 29.03125 27.554688 28.910156 27.320312 28.671875 L 18.585938 19.945312 C 18.46875 19.832031 18.382812 19.699219 18.320312 19.550781 C 18.257812 19.402344 18.226562 19.246094 18.226562 19.085938 C 18.226562 18.921875 18.257812 18.765625 18.320312 18.617188 C 18.382812 18.46875 18.46875 18.335938 18.585938 18.222656 C 18.699219 18.109375 18.832031 18.019531 18.980469 17.957031 C 19.128906 17.898438 19.285156 17.867188 19.445312 17.867188 C 19.609375 17.867188 19.761719 17.898438 19.914062 17.957031 C 20.0625 18.019531 20.191406 18.109375 20.308594 18.222656 L 29.035156 26.957031 C 29.207031 27.128906 29.320312 27.339844 29.367188 27.578125 C 29.414062 27.820312 29.390625 28.054688 29.296875 28.28125 C 29.203125 28.507812 29.054688 28.6875 28.851562 28.824219 C 28.648438 28.960938 28.421875 29.03125 28.175781 29.03125 Z M 28.175781 29.03125 " fill-opacity="1" fill-rule="nonzero"/></g></svg>